<?xml version="1.0" standalone="no"?><!-- Generator: Gravit.io -->
<svg xmlns="http://www.w3.org/2000/svg" style="isolation:isolate" viewBox="16.728 24.141 438.061 149.319"
     width="438.061" height="149.319">
    <g id="Claimed Logo">
        <g id="Logo">
            <g id="Emo">
                <g id="Emo-Face">
                    <path d=" M 76.919 143.846 C 44.072 143.846 17.404 117.178 17.404 84.331 C 17.404 51.484 44.072 24.817 76.919 24.817 C 109.766 24.817 136.433 51.484 136.433 84.331"
                          fill="none" vector-effect="non-scaling-stroke" stroke-width="1.352" stroke="rgb(0,0,0)"
                          stroke-linejoin="miter" stroke-linecap="square" stroke-miterlimit="3"/>
                    <line x1="136.433" y1="84.331" x2="76.919" y2="84.331" vector-effect="non-scaling-stroke"
                          stroke-width="1.352" stroke="rgb(0,0,0)" stroke-linejoin="miter" stroke-linecap="square"
                          stroke-miterlimit="3"/>
                </g>
                <g id="Emo-Eyes">
                    <path d=" M 121.897 71.171 C 121.897 69.761 123.042 68.617 124.452 68.617 C 125.862 68.617 127.006 69.761 127.006 71.171 C 127.006 72.581 125.862 73.726 124.452 73.726 C 123.042 73.726 121.897 72.581 121.897 71.171 Z "
                          fill="rgb(0,0,0)"/>
                    <path d=" M 102.072 71.171 C 102.072 69.761 103.216 68.617 104.626 68.617 C 106.036 68.617 107.181 69.761 107.181 71.171 C 107.181 72.581 106.036 73.726 104.626 73.726 C 103.216 73.726 102.072 72.581 102.072 71.171 Z "
                          fill="rgb(0,0,0)"/>
                </g>
            </g>
            <path d=" M 129.709 109.675 L 132.629 109.675 L 132.73 114.144 L 132.73 114.144 Q 134.254 111.656 136.539 110.411 L 136.539 110.411 L 136.539 110.411 Q 138.824 109.167 141.617 109.167 L 141.617 109.167 L 141.617 109.167 Q 148.117 109.167 149.869 114.499 L 149.869 114.499 L 149.869 114.499 Q 151.342 111.935 153.805 110.551 L 153.805 110.551 L 153.805 110.551 Q 156.267 109.167 159.238 109.167 L 159.238 109.167 L 159.238 109.167 Q 168.074 109.167 168.252 118.816 L 168.252 118.816 L 168.252 137.148 L 165.205 137.148 L 165.205 119.044 L 165.205 119.044 Q 165.18 115.363 163.618 113.585 L 163.618 113.585 L 163.618 113.585 Q 162.057 111.808 158.527 111.808 L 158.527 111.808 L 158.527 111.808 Q 155.252 111.859 152.992 113.928 L 152.992 113.928 L 152.992 113.928 Q 150.732 115.997 150.478 118.968 L 150.478 118.968 L 150.478 137.148 L 147.432 137.148 L 147.432 118.816 L 147.432 118.816 Q 147.406 115.286 145.768 113.547 L 145.768 113.547 L 145.768 113.547 Q 144.131 111.808 140.728 111.808 L 140.728 111.808 L 140.728 111.808 Q 137.859 111.808 135.803 113.446 L 135.803 113.446 L 135.803 113.446 Q 133.746 115.083 132.756 118.308 L 132.756 118.308 L 132.756 137.148 L 129.709 137.148 L 129.709 109.675 Z  M 174.269 123.615 L 174.269 123.005 L 174.269 123.005 Q 174.269 119.044 175.806 115.87 L 175.806 115.87 L 175.806 115.87 Q 177.342 112.697 180.147 110.932 L 180.147 110.932 L 180.147 110.932 Q 182.953 109.167 186.508 109.167 L 186.508 109.167 L 186.508 109.167 Q 191.992 109.167 195.394 113.014 L 195.394 113.014 L 195.394 113.014 Q 198.797 116.861 198.797 123.208 L 198.797 123.208 L 198.797 123.843 L 198.797 123.843 Q 198.797 127.829 197.261 131.016 L 197.261 131.016 L 197.261 131.016 Q 195.725 134.202 192.932 135.929 L 192.932 135.929 L 192.932 135.929 Q 190.139 137.656 186.558 137.656 L 186.558 137.656 L 186.558 137.656 Q 181.1 137.656 177.684 133.809 L 177.684 133.809 L 177.684 133.809 Q 174.269 129.962 174.269 123.615 L 174.269 123.615 Z  M 177.316 123.284 L 177.316 123.843 L 177.316 123.843 Q 177.316 128.769 179.868 131.93 L 179.868 131.93 L 179.868 131.93 Q 182.42 135.091 186.558 135.091 L 186.558 135.091 L 186.558 135.091 Q 190.672 135.091 193.224 131.93 L 193.224 131.93 L 193.224 131.93 Q 195.775 128.769 195.775 123.589 L 195.775 123.589 L 195.775 123.005 L 195.775 123.005 Q 195.775 119.857 194.607 117.242 L 194.607 117.242 L 194.607 117.242 Q 193.439 114.626 191.332 113.192 L 191.332 113.192 L 191.332 113.192 Q 189.225 111.757 186.508 111.757 L 186.508 111.757 L 186.508 111.757 Q 182.445 111.757 179.881 114.944 L 179.881 114.944 L 179.881 114.944 Q 177.316 118.13 177.316 123.284 L 177.316 123.284 Z  M 206.744 102.642 L 209.791 102.642 L 209.791 109.675 L 215.478 109.675 L 215.478 112.163 L 209.791 112.163 L 209.791 130.47 L 209.791 130.47 Q 209.791 132.755 210.616 133.872 L 210.616 133.872 L 210.616 133.872 Q 211.441 134.99 213.371 134.99 L 213.371 134.99 L 213.371 134.99 Q 214.133 134.99 215.834 134.736 L 215.834 134.736 L 215.961 137.224 L 215.961 137.224 Q 214.767 137.656 212.711 137.656 L 212.711 137.656 L 212.711 137.656 Q 209.588 137.656 208.166 135.84 L 208.166 135.84 L 208.166 135.84 Q 206.744 134.025 206.744 130.495 L 206.744 130.495 L 206.744 112.163 L 201.691 112.163 L 201.691 109.675 L 206.744 109.675 L 206.744 102.642 Z  M 225.178 109.675 L 225.178 137.148 L 222.131 137.148 L 222.131 109.675 L 225.178 109.675 Z  M 221.598 101.728 L 221.598 101.728 L 221.598 101.728 Q 221.598 100.865 222.156 100.268 L 222.156 100.268 L 222.156 100.268 Q 222.715 99.671 223.68 99.671 L 223.68 99.671 L 223.68 99.671 Q 224.644 99.671 225.216 100.268 L 225.216 100.268 L 225.216 100.268 Q 225.787 100.865 225.787 101.728 L 225.787 101.728 L 225.787 101.728 Q 225.787 102.591 225.216 103.175 L 225.216 103.175 L 225.216 103.175 Q 224.644 103.759 223.68 103.759 L 223.68 103.759 L 223.68 103.759 Q 222.715 103.759 222.156 103.175 L 222.156 103.175 L 222.156 103.175 Q 221.598 102.591 221.598 101.728 Z  M 231.754 123.615 L 231.754 123.005 L 231.754 123.005 Q 231.754 119.044 233.29 115.87 L 233.29 115.87 L 233.29 115.87 Q 234.826 112.697 237.632 110.932 L 237.632 110.932 L 237.632 110.932 Q 240.437 109.167 243.992 109.167 L 243.992 109.167 L 243.992 109.167 Q 249.476 109.167 252.879 113.014 L 252.879 113.014 L 252.879 113.014 Q 256.281 116.861 256.281 123.208 L 256.281 123.208 L 256.281 123.843 L 256.281 123.843 Q 256.281 127.829 254.745 131.016 L 254.745 131.016 L 254.745 131.016 Q 253.209 134.202 250.416 135.929 L 250.416 135.929 L 250.416 135.929 Q 247.623 137.656 244.043 137.656 L 244.043 137.656 L 244.043 137.656 Q 238.584 137.656 235.169 133.809 L 235.169 133.809 L 235.169 133.809 Q 231.754 129.962 231.754 123.615 L 231.754 123.615 Z  M 234.801 123.284 L 234.801 123.843 L 234.801 123.843 Q 234.801 128.769 237.352 131.93 L 237.352 131.93 L 237.352 131.93 Q 239.904 135.091 244.043 135.091 L 244.043 135.091 L 244.043 135.091 Q 248.156 135.091 250.708 131.93 L 250.708 131.93 L 250.708 131.93 Q 253.26 128.769 253.26 123.589 L 253.26 123.589 L 253.26 123.005 L 253.26 123.005 Q 253.26 119.857 252.092 117.242 L 252.092 117.242 L 252.092 117.242 Q 250.924 114.626 248.816 113.192 L 248.816 113.192 L 248.816 113.192 Q 246.709 111.757 243.992 111.757 L 243.992 111.757 L 243.992 111.757 Q 239.93 111.757 237.365 114.944 L 237.365 114.944 L 237.365 114.944 Q 234.801 118.13 234.801 123.284 L 234.801 123.284 Z  M 262.553 109.675 L 265.447 109.675 L 265.549 114.372 L 265.549 114.372 Q 267.098 111.833 269.408 110.5 L 269.408 110.5 L 269.408 110.5 Q 271.719 109.167 274.512 109.167 L 274.512 109.167 L 274.512 109.167 Q 278.93 109.167 281.088 111.656 L 281.088 111.656 L 281.088 111.656 Q 283.246 114.144 283.271 119.12 L 283.271 119.12 L 283.271 137.148 L 280.25 137.148 L 280.25 119.095 L 280.25 119.095 Q 280.225 115.413 278.688 113.611 L 278.688 113.611 L 278.688 113.611 Q 277.152 111.808 273.775 111.808 L 273.775 111.808 L 273.775 111.808 Q 270.957 111.808 268.786 113.573 L 268.786 113.573 L 268.786 113.573 Q 266.615 115.337 265.574 118.333 L 265.574 118.333 L 265.574 137.148 L 262.553 137.148 L 262.553 109.675 Z  M 294.519 98.148 L 294.519 137.148 L 291.473 137.148 L 291.473 98.148 L 294.519 98.148 Z  M 313.41 137.656 L 313.41 137.656 L 313.41 137.656 Q 309.906 137.656 307.075 135.929 L 307.075 135.929 L 307.075 135.929 Q 304.244 134.202 302.67 131.118 L 302.67 131.118 L 302.67 131.118 Q 301.096 128.033 301.096 124.199 L 301.096 124.199 L 301.096 123.107 L 301.096 123.107 Q 301.096 119.146 302.632 115.972 L 302.632 115.972 L 302.632 115.972 Q 304.168 112.798 306.91 110.983 L 306.91 110.983 L 306.91 110.983 Q 309.652 109.167 312.851 109.167 L 312.851 109.167 L 312.851 109.167 Q 317.853 109.167 320.786 112.582 L 320.786 112.582 L 320.786 112.582 Q 323.719 115.997 323.719 121.913 L 323.719 121.913 L 323.719 123.615 L 304.117 123.615 L 304.117 124.199 L 304.117 124.199 Q 304.117 128.87 306.796 131.981 L 306.796 131.981 L 306.796 131.981 Q 309.475 135.091 313.537 135.091 L 313.537 135.091 L 313.537 135.091 Q 315.975 135.091 317.841 134.202 L 317.841 134.202 L 317.841 134.202 Q 319.707 133.314 321.23 131.359 L 321.23 131.359 L 323.135 132.806 L 323.135 132.806 Q 319.783 137.656 313.41 137.656 Z  M 312.851 111.757 L 312.851 111.757 L 312.851 111.757 Q 309.424 111.757 307.075 114.271 L 307.075 114.271 L 307.075 114.271 Q 304.726 116.784 304.219 121.025 L 304.219 121.025 L 320.697 121.025 L 320.697 120.695 L 320.697 120.695 Q 320.57 116.734 318.437 114.245 L 318.437 114.245 L 318.437 114.245 Q 316.305 111.757 312.851 111.757 Z  M 346.088 130.165 L 346.088 130.165 L 346.088 130.165 Q 346.088 127.906 344.272 126.534 L 344.272 126.534 L 344.272 126.534 Q 342.457 125.163 338.801 124.389 L 338.801 124.389 L 338.801 124.389 Q 335.144 123.615 333.126 122.612 L 333.126 122.612 L 333.126 122.612 Q 331.107 121.609 330.13 120.161 L 330.13 120.161 L 330.13 120.161 Q 329.152 118.714 329.152 116.658 L 329.152 116.658 L 329.152 116.658 Q 329.152 113.408 331.869 111.287 L 331.869 111.287 L 331.869 111.287 Q 334.586 109.167 338.826 109.167 L 338.826 109.167 L 338.826 109.167 Q 343.422 109.167 346.202 111.44 L 346.202 111.44 L 346.202 111.44 Q 348.982 113.712 348.982 117.368 L 348.982 117.368 L 345.935 117.368 L 345.935 117.368 Q 345.935 114.956 343.917 113.357 L 343.917 113.357 L 343.917 113.357 Q 341.898 111.757 338.826 111.757 L 338.826 111.757 L 338.826 111.757 Q 335.83 111.757 334.015 113.09 L 334.015 113.09 L 334.015 113.09 Q 332.199 114.423 332.199 116.556 L 332.199 116.556 L 332.199 116.556 Q 332.199 118.613 333.71 119.743 L 333.71 119.743 L 333.71 119.743 Q 335.221 120.872 339.22 121.812 L 339.22 121.812 L 339.22 121.812 Q 343.219 122.751 345.212 123.818 L 345.212 123.818 L 345.212 123.818 Q 347.205 124.884 348.17 126.382 L 348.17 126.382 L 348.17 126.382 Q 349.135 127.88 349.135 130.013 L 349.135 130.013 L 349.135 130.013 Q 349.135 133.492 346.329 135.574 L 346.329 135.574 L 346.329 135.574 Q 343.523 137.656 339.004 137.656 L 339.004 137.656 L 339.004 137.656 Q 334.205 137.656 331.222 135.332 L 331.222 135.332 L 331.222 135.332 Q 328.238 133.009 328.238 129.454 L 328.238 129.454 L 331.285 129.454 L 331.285 129.454 Q 331.463 132.12 333.532 133.606 L 333.532 133.606 L 333.532 133.606 Q 335.601 135.091 339.004 135.091 L 339.004 135.091 L 339.004 135.091 Q 342.178 135.091 344.133 133.695 L 344.133 133.695 L 344.133 133.695 Q 346.088 132.298 346.088 130.165 Z  M 372.418 130.165 L 372.418 130.165 L 372.418 130.165 Q 372.418 127.906 370.602 126.534 L 370.602 126.534 L 370.602 126.534 Q 368.787 125.163 365.131 124.389 L 365.131 124.389 L 365.131 124.389 Q 361.475 123.615 359.456 122.612 L 359.456 122.612 L 359.456 122.612 Q 357.437 121.609 356.46 120.161 L 356.46 120.161 L 356.46 120.161 Q 355.482 118.714 355.482 116.658 L 355.482 116.658 L 355.482 116.658 Q 355.482 113.408 358.199 111.287 L 358.199 111.287 L 358.199 111.287 Q 360.916 109.167 365.156 109.167 L 365.156 109.167 L 365.156 109.167 Q 369.752 109.167 372.532 111.44 L 372.532 111.44 L 372.532 111.44 Q 375.312 113.712 375.312 117.368 L 375.312 117.368 L 372.266 117.368 L 372.266 117.368 Q 372.266 114.956 370.247 113.357 L 370.247 113.357 L 370.247 113.357 Q 368.228 111.757 365.156 111.757 L 365.156 111.757 L 365.156 111.757 Q 362.16 111.757 360.345 113.09 L 360.345 113.09 L 360.345 113.09 Q 358.529 114.423 358.529 116.556 L 358.529 116.556 L 358.529 116.556 Q 358.529 118.613 360.04 119.743 L 360.04 119.743 L 360.04 119.743 Q 361.551 120.872 365.55 121.812 L 365.55 121.812 L 365.55 121.812 Q 369.549 122.751 371.542 123.818 L 371.542 123.818 L 371.542 123.818 Q 373.535 124.884 374.5 126.382 L 374.5 126.382 L 374.5 126.382 Q 375.465 127.88 375.465 130.013 L 375.465 130.013 L 375.465 130.013 Q 375.465 133.492 372.659 135.574 L 372.659 135.574 L 372.659 135.574 Q 369.853 137.656 365.334 137.656 L 365.334 137.656 L 365.334 137.656 Q 360.535 137.656 357.552 135.332 L 357.552 135.332 L 357.552 135.332 Q 354.568 133.009 354.568 129.454 L 354.568 129.454 L 357.615 129.454 L 357.615 129.454 Q 357.793 132.12 359.862 133.606 L 359.862 133.606 L 359.862 133.606 Q 361.932 135.091 365.334 135.091 L 365.334 135.091 L 365.334 135.091 Q 368.508 135.091 370.463 133.695 L 370.463 133.695 L 370.463 133.695 Q 372.418 132.298 372.418 130.165 Z "
                  fill-rule="evenodd" fill="rgb(0,0,0)"/>
        </g>
        <path d=" M 413.674 152.125 L 413.674 152.125 Q 413.674 150.798 412.703 149.976 L 412.703 149.976 L 412.703 149.976 Q 411.732 149.154 410.167 149.154 L 410.167 149.154 L 410.167 149.154 Q 408.603 149.154 407.684 149.897 L 407.684 149.897 L 407.684 149.897 Q 406.766 150.64 406.766 151.804 L 406.766 151.804 L 406.766 151.804 Q 406.766 152.969 407.794 152.969 L 407.794 152.969 L 407.794 152.969 Q 408.128 152.969 408.396 153.149 L 408.396 153.149 L 408.396 153.149 Q 408.664 153.329 408.664 153.703 L 408.664 153.703 L 408.664 153.703 Q 408.664 154.076 408.348 154.327 L 408.348 154.327 L 408.348 154.327 Q 408.032 154.577 407.539 154.577 L 407.539 154.577 L 407.539 154.577 Q 406.564 154.577 405.874 153.773 L 405.874 153.773 L 405.874 153.773 Q 405.184 152.969 405.184 151.8 L 405.184 151.8 L 405.184 151.8 Q 405.184 150.156 406.533 148.957 L 406.533 148.957 L 406.533 148.957 Q 407.882 147.757 410.224 147.757 L 410.224 147.757 L 410.224 147.757 Q 412.567 147.757 413.938 148.952 L 413.938 148.952 L 413.938 148.952 Q 415.309 150.148 415.309 151.945 L 415.309 151.945 L 415.309 151.945 Q 415.309 153.742 413.973 155.408 L 413.973 155.408 L 413.973 155.408 Q 412.637 157.073 409.42 159.271 L 409.42 159.271 L 409.42 159.271 Q 409.983 159.42 410.712 159.666 L 410.712 159.666 L 410.712 159.666 Q 412.997 160.281 413.542 160.294 L 413.542 160.294 L 413.542 160.294 Q 414.087 160.308 414.566 160.07 L 414.566 160.07 L 414.566 160.07 Q 415.045 159.833 415.247 159.438 L 415.247 159.438 L 415.247 159.438 Q 415.449 159.042 415.643 158.893 L 415.643 158.893 L 415.643 158.893 Q 415.836 158.743 416.135 158.743 L 416.135 158.743 L 416.135 158.743 Q 416.434 158.743 416.623 158.95 L 416.623 158.95 L 416.623 158.95 Q 416.812 159.156 416.812 159.49 L 416.812 159.49 L 416.812 159.49 Q 416.812 159.824 416.544 160.233 L 416.544 160.233 L 416.544 160.233 Q 416.276 160.642 415.81 160.976 L 415.81 160.976 L 415.81 160.976 Q 414.755 161.732 413.56 161.732 L 413.56 161.732 L 413.56 161.732 Q 412.365 161.732 411.631 161.538 L 411.631 161.538 L 411.631 161.538 Q 410.897 161.345 409.763 160.967 L 409.763 160.967 L 409.763 160.967 Q 408.629 160.589 408.053 160.589 L 408.053 160.589 L 408.053 160.589 Q 407.478 160.589 407.126 160.769 L 407.126 160.769 L 407.126 160.769 Q 406.775 160.949 406.243 161.34 L 406.243 161.34 L 406.243 161.34 Q 405.711 161.732 405.197 161.732 L 405.197 161.732 L 405.197 161.732 Q 404.683 161.732 404.446 161.318 L 404.446 161.318 L 404.446 161.318 Q 404.366 161.169 404.366 160.844 L 404.366 160.844 L 404.366 160.844 Q 404.366 160.519 404.683 160.233 L 404.683 160.233 L 404.683 160.233 Q 404.999 159.947 406.331 159.293 L 406.331 159.293 L 406.331 159.293 Q 407.662 158.638 409.17 157.636 L 409.17 157.636 L 409.17 157.636 Q 410.677 156.634 411.679 155.676 L 411.679 155.676 L 411.679 155.676 Q 413.674 153.751 413.674 152.125 L 413.674 152.125 Z  M 428.492 154.885 L 428.492 154.885 L 428.492 154.885 Q 428.492 149.128 424.827 149.128 L 424.827 149.128 L 424.827 149.128 Q 422.235 149.128 421.435 152.231 L 421.435 152.231 L 421.435 152.231 Q 421.162 153.312 421.162 154.832 L 421.162 154.832 L 421.162 154.832 Q 421.162 157.724 422.178 159.042 L 422.178 159.042 L 422.178 159.042 Q 423.193 160.36 424.77 160.36 L 424.77 160.36 L 424.77 160.36 Q 426.348 160.36 427.341 159.068 L 427.341 159.068 L 427.341 159.068 Q 428.492 157.574 428.492 154.885 Z  M 424.709 161.732 L 424.709 161.732 L 424.709 161.732 Q 422.208 161.732 420.881 159.921 L 420.881 159.921 L 420.881 159.921 Q 419.554 158.11 419.554 154.885 L 419.554 154.885 L 419.554 154.885 Q 419.554 149.576 422.63 148.188 L 422.63 148.188 L 422.63 148.188 Q 423.615 147.739 424.863 147.739 L 424.863 147.739 L 424.863 147.739 Q 427.332 147.739 428.712 149.567 L 428.712 149.567 L 428.712 149.567 Q 430.092 151.396 430.092 154.731 L 430.092 154.731 L 430.092 154.731 Q 430.092 158.066 428.651 159.899 L 428.651 159.899 L 428.651 159.899 Q 427.209 161.732 424.709 161.732 Z  M 433.137 161.411 L 433.137 161.411 L 433.137 161.411 Q 432.913 161.222 432.913 160.905 L 432.913 160.905 L 432.913 160.905 Q 432.913 160.589 433.181 160.387 L 433.181 160.387 L 433.181 160.387 Q 433.449 160.185 433.907 160.185 L 433.907 160.185 L 436.025 160.185 L 436.025 150.218 L 435.497 150.692 L 435.497 150.692 Q 435.032 151.123 434.324 152.002 L 434.324 152.002 L 434.324 152.002 Q 433.616 152.881 433.063 152.881 L 433.063 152.881 L 433.063 152.881 Q 432.676 152.881 432.491 152.657 L 432.491 152.657 L 432.491 152.657 Q 432.307 152.433 432.307 152.099 L 432.307 152.099 L 432.307 152.099 Q 432.307 151.51 433.072 150.93 L 433.072 150.93 L 433.072 150.93 Q 434.249 150.112 435.524 148.618 L 435.524 148.618 L 435.849 148.258 L 435.849 148.258 Q 436.324 147.757 436.772 147.757 L 436.772 147.757 L 436.772 147.757 Q 437.22 147.757 437.44 148.056 L 437.44 148.056 L 437.44 148.056 Q 437.659 148.355 437.659 148.829 L 437.659 148.829 L 437.659 160.185 L 439.206 160.185 L 439.206 160.185 Q 439.822 160.185 440.076 160.4 L 440.076 160.4 L 440.076 160.4 Q 440.331 160.615 440.331 160.897 L 440.331 160.897 L 440.331 160.897 Q 440.331 161.178 440.112 161.389 L 440.112 161.389 L 440.112 161.389 Q 439.892 161.6 439.382 161.6 L 439.382 161.6 L 439.11 161.6 L 439.11 161.6 Q 438.925 161.6 438.714 161.6 L 438.714 161.6 L 438.301 161.582 L 438.301 161.582 Q 438.099 161.582 437.971 161.578 L 437.971 161.578 L 437.971 161.578 Q 437.844 161.573 437.457 161.565 L 437.457 161.565 L 437.132 161.547 L 437.132 161.547 Q 436.965 161.547 436.811 161.547 L 436.811 161.547 L 436.811 161.547 Q 436.657 161.547 436.438 161.547 L 436.438 161.547 L 436.016 161.565 L 436.016 161.565 Q 435.489 161.573 435.357 161.578 L 435.357 161.578 L 435.357 161.578 Q 435.225 161.582 434.996 161.582 L 434.996 161.582 L 434.531 161.6 L 434.531 161.6 Q 434.284 161.6 434.065 161.6 L 434.065 161.6 L 433.757 161.6 L 433.757 161.6 Q 433.362 161.6 433.137 161.411 Z  M 441.825 151.343 L 441.825 151.343 L 441.825 151.343 Q 441.061 151.343 441.061 150.719 L 441.061 150.719 L 441.061 150.719 Q 441.061 150.429 441.136 150.266 L 441.136 150.266 L 441.136 150.266 Q 441.21 150.104 441.487 149.765 L 441.487 149.765 L 441.487 149.765 Q 441.764 149.427 442.195 147.739 L 442.195 147.739 L 442.195 147.739 Q 442.326 147.186 442.88 147.186 L 442.88 147.186 L 442.88 147.186 Q 443.144 147.186 443.324 147.375 L 443.324 147.375 L 443.324 147.375 Q 443.504 147.564 443.557 147.783 L 443.557 147.783 L 443.557 147.783 Q 445.174 148.003 448.268 148.003 L 448.268 148.003 L 448.268 148.003 Q 449.331 148.003 449.999 147.783 L 449.999 147.783 L 449.999 147.783 Q 450.667 147.564 450.975 147.564 L 450.975 147.564 L 450.975 147.564 Q 451.282 147.564 451.515 147.744 L 451.515 147.744 L 451.515 147.744 Q 451.748 147.924 451.748 148.328 L 451.748 148.328 L 451.748 148.328 Q 451.748 148.732 451.309 149.11 L 451.309 149.11 L 451.309 149.11 Q 450.676 149.638 449.323 152.283 L 449.323 152.283 L 449.323 152.283 Q 447.354 156.177 446.475 159.367 L 446.475 159.367 L 446.475 159.367 Q 446.246 160.193 446.163 160.76 L 446.163 160.76 L 446.163 160.76 Q 446.079 161.327 445.811 161.529 L 445.811 161.529 L 445.811 161.529 Q 445.543 161.732 445.187 161.732 L 445.187 161.732 L 445.187 161.732 Q 444.831 161.732 444.59 161.477 L 444.59 161.477 L 444.59 161.477 Q 444.348 161.222 444.348 160.861 L 444.348 160.861 L 444.348 160.861 Q 444.348 159.613 445.367 157.223 L 445.367 157.223 L 445.367 157.223 Q 446.563 154.516 447.108 153.426 L 447.108 153.426 L 447.108 153.426 Q 448.496 150.763 449.287 149.427 L 449.287 149.427 L 449.287 149.427 Q 448.611 149.497 446.699 149.497 L 446.699 149.497 L 446.699 149.497 Q 444.787 149.497 443.276 149.269 L 443.276 149.269 L 443.276 149.269 Q 443.047 150.244 442.616 150.794 L 442.616 150.794 L 442.616 150.794 Q 442.186 151.343 441.825 151.343 Z  M 352.326 161.732 L 352.326 161.732 L 352.326 161.732 Q 351.562 161.732 350.85 161.608 L 350.85 161.608 L 350.85 161.608 Q 350.49 162.241 350.094 162.241 L 350.094 162.241 L 350.094 162.241 Q 349.532 162.241 349.532 161.723 L 349.532 161.723 L 349.532 161.723 Q 349.532 161.266 349.299 160.87 L 349.299 160.87 L 349.299 160.87 Q 349.066 160.475 348.89 160.211 L 348.89 160.211 L 348.89 160.211 Q 348.301 159.332 348.301 158.981 L 348.301 158.981 L 348.301 158.981 Q 348.301 158.629 348.503 158.462 L 348.503 158.462 L 348.503 158.462 Q 348.705 158.295 348.951 158.295 L 348.951 158.295 L 348.951 158.295 Q 349.435 158.295 349.826 159.064 L 349.826 159.064 L 349.826 159.064 Q 350.217 159.833 350.753 160.088 L 350.753 160.088 L 350.753 160.088 Q 351.289 160.343 352.441 160.343 L 352.441 160.343 L 352.441 160.343 Q 354.137 160.343 354.647 159.376 L 354.647 159.376 L 354.647 159.376 Q 354.805 159.086 354.805 158.743 L 354.805 158.743 L 354.805 158.743 Q 354.805 158.058 354.207 157.772 L 354.207 157.772 L 354.207 157.772 Q 353.61 157.486 352.353 157.407 L 352.353 157.407 L 352.353 157.407 Q 351.096 157.328 350.498 157.135 L 350.498 157.135 L 350.498 157.135 Q 348.758 156.546 348.758 155.043 L 348.758 155.043 L 348.758 155.043 Q 348.758 154.12 349.729 153.378 L 349.729 153.378 L 349.729 153.378 Q 350.7 152.635 352.573 152.635 L 352.573 152.635 L 352.573 152.635 Q 352.968 152.635 353.364 152.705 L 353.364 152.705 L 353.364 152.705 Q 353.276 152.459 353.276 152.292 L 353.276 152.292 L 353.276 152.292 Q 353.276 152.125 353.425 151.98 L 353.425 151.98 L 353.425 151.98 Q 353.574 151.835 353.799 151.835 L 353.799 151.835 L 353.799 151.835 Q 354.023 151.835 354.146 151.949 L 354.146 151.949 L 354.146 151.949 Q 354.269 152.064 354.427 152.376 L 354.427 152.376 L 354.427 152.376 Q 354.585 152.688 355.033 153.263 L 355.033 153.263 L 355.033 153.263 Q 355.482 153.839 355.592 154.054 L 355.592 154.054 L 355.592 154.054 Q 355.701 154.27 355.701 154.516 L 355.701 154.516 L 355.701 154.516 Q 355.701 154.762 355.548 154.929 L 355.548 154.929 L 355.548 154.929 Q 355.394 155.096 355.139 155.096 L 355.139 155.096 L 355.139 155.096 Q 354.656 155.096 354.269 154.454 L 354.269 154.454 L 354.269 154.454 Q 354.075 154.129 353.706 154.006 L 353.706 154.006 L 353.706 154.006 Q 353.337 153.883 352.423 153.883 L 352.423 153.883 L 352.423 153.883 Q 351.509 153.883 350.96 154.212 L 350.96 154.212 L 350.96 154.212 Q 350.41 154.542 350.41 154.99 L 350.41 154.99 L 350.41 154.99 Q 350.41 155.439 350.692 155.614 L 350.692 155.614 L 350.692 155.614 Q 351.21 155.948 352.309 156.01 L 352.309 156.01 L 352.309 156.01 Q 354.418 156.133 355.372 156.731 L 355.372 156.731 L 355.372 156.731 Q 356.325 157.328 356.325 158.515 L 356.325 158.515 L 356.325 158.515 Q 356.325 160.035 355.165 160.883 L 355.165 160.883 L 355.165 160.883 Q 354.005 161.732 352.326 161.732 Z  M 361.801 161.6 L 361.801 161.6 L 360.149 161.547 L 360.149 161.547 Q 359.78 161.547 359.595 161.556 L 359.595 161.556 L 359.208 161.573 L 359.208 161.573 Q 358.769 161.6 358.435 161.6 L 358.435 161.6 L 358.435 161.6 Q 357.582 161.6 357.582 160.949 L 357.582 160.949 L 357.582 160.949 Q 357.582 160.633 357.85 160.457 L 357.85 160.457 L 357.85 160.457 Q 358.118 160.281 358.567 160.281 L 358.567 160.281 L 359.252 160.281 L 359.252 154.551 L 359.252 154.551 Q 359.252 154.024 359.024 154.024 L 359.024 154.024 L 359.024 154.024 Q 358.918 154.024 358.694 154.085 L 358.694 154.085 L 358.694 154.085 Q 358.47 154.147 358.193 154.147 L 358.193 154.147 L 358.193 154.147 Q 357.916 154.147 357.697 153.962 L 357.697 153.962 L 357.697 153.962 Q 357.477 153.777 357.477 153.461 L 357.477 153.461 L 357.477 153.461 Q 357.477 152.793 358.426 152.696 L 358.426 152.696 L 358.426 152.696 Q 359.015 152.644 359.388 152.538 L 359.388 152.538 L 359.388 152.538 Q 359.762 152.433 360.114 152.433 L 360.114 152.433 L 360.114 152.433 Q 360.773 152.433 360.773 153.276 L 360.773 153.276 L 360.773 160.281 L 361.467 160.281 L 361.467 160.281 Q 362.574 160.281 362.574 160.976 L 362.574 160.976 L 362.574 160.976 Q 362.574 161.222 362.359 161.411 L 362.359 161.411 L 362.359 161.411 Q 362.144 161.6 361.801 161.6 Z  M 361.098 149.418 L 361.098 149.418 L 361.098 149.418 Q 361.098 150.271 360.377 150.525 L 360.377 150.525 L 360.377 150.525 Q 360.175 150.596 359.806 150.596 L 359.806 150.596 L 359.806 150.596 Q 359.437 150.596 359.129 150.306 L 359.129 150.306 L 359.129 150.306 Q 358.822 150.016 358.822 149.55 L 358.822 149.55 L 358.822 149.55 Q 358.822 149.084 359.142 148.776 L 359.142 148.776 L 359.142 148.776 Q 359.463 148.469 359.986 148.469 L 359.986 148.469 L 359.986 148.469 Q 360.509 148.469 360.803 148.746 L 360.803 148.746 L 360.803 148.746 Q 361.098 149.023 361.098 149.418 Z  M 365.774 161.547 L 364.104 161.6 L 364.104 161.6 Q 363.26 161.6 363.26 160.949 L 363.26 160.949 L 363.26 160.949 Q 363.26 160.633 363.524 160.457 L 363.524 160.457 L 363.524 160.457 Q 363.787 160.281 364.253 160.281 L 364.253 160.281 L 365.035 160.281 L 365.035 154.551 L 365.035 154.551 Q 365.035 154.024 364.807 154.024 L 364.807 154.024 L 364.807 154.024 Q 364.684 154.024 364.482 154.085 L 364.482 154.085 L 364.482 154.085 Q 364.28 154.147 363.99 154.147 L 363.99 154.147 L 363.99 154.147 Q 363.699 154.147 363.48 153.962 L 363.48 153.962 L 363.48 153.962 Q 363.26 153.777 363.26 153.461 L 363.26 153.461 L 363.26 153.461 Q 363.26 152.793 364.209 152.696 L 364.209 152.696 L 364.209 152.696 Q 364.71 152.652 365.145 152.543 L 365.145 152.543 L 365.145 152.543 Q 365.58 152.433 365.914 152.433 L 365.914 152.433 L 365.914 152.433 Q 366.556 152.433 366.556 153.276 L 366.556 153.276 L 366.556 154.428 L 366.556 154.428 Q 366.934 153.584 367.795 153.044 L 367.795 153.044 L 367.795 153.044 Q 368.657 152.503 369.615 152.503 L 369.615 152.503 L 369.615 152.503 Q 371.32 152.503 372.032 153.364 L 372.032 153.364 L 372.032 153.364 Q 372.743 154.226 372.743 155.685 L 372.743 155.685 L 372.743 160.281 L 373.332 160.281 L 373.332 160.281 Q 374.44 160.281 374.44 160.976 L 374.44 160.976 L 374.44 160.976 Q 374.44 161.222 374.229 161.411 L 374.229 161.411 L 374.229 161.411 Q 374.018 161.6 373.508 161.6 L 373.508 161.6 L 371.961 161.547 L 370.291 161.6 L 370.291 161.6 Q 369.448 161.6 369.448 160.949 L 369.448 160.949 L 369.448 160.949 Q 369.448 160.633 369.711 160.457 L 369.711 160.457 L 369.711 160.457 Q 369.975 160.281 370.441 160.281 L 370.441 160.281 L 371.205 160.281 L 371.205 156.256 L 371.205 156.256 Q 371.205 154.41 370.274 154.041 L 370.274 154.041 L 370.274 154.041 Q 369.949 153.909 369.491 153.909 L 369.491 153.909 L 369.491 153.909 Q 368.551 153.909 367.694 154.63 L 367.694 154.63 L 367.694 154.63 Q 366.837 155.351 366.556 156.458 L 366.556 156.458 L 366.556 160.281 L 367.145 160.281 L 367.145 160.281 Q 368.252 160.281 368.252 160.976 L 368.252 160.976 L 368.252 160.976 Q 368.252 161.222 368.041 161.411 L 368.041 161.411 L 368.041 161.411 Q 367.83 161.6 367.321 161.6 L 367.321 161.6 L 365.774 161.547 Z  M 383.079 158.743 L 383.079 158.743 L 383.079 158.743 Q 383.862 158.743 383.862 159.438 L 383.862 159.438 L 383.862 159.438 Q 383.862 159.754 383.611 160.158 L 383.611 160.158 L 383.611 160.158 Q 383.361 160.563 382.877 160.914 L 382.877 160.914 L 382.877 160.914 Q 381.752 161.732 379.999 161.732 L 379.999 161.732 L 379.999 161.732 Q 378.245 161.732 376.989 160.563 L 376.989 160.563 L 376.989 160.563 Q 376.373 159.982 376 159.117 L 376 159.117 L 376 159.117 Q 375.626 158.251 375.626 157.205 L 375.626 157.205 L 375.626 157.205 Q 375.626 155.192 376.971 153.848 L 376.971 153.848 L 376.971 153.848 Q 378.316 152.503 380.346 152.503 L 380.346 152.503 L 380.346 152.503 Q 380.9 152.503 381.462 152.679 L 381.462 152.679 L 381.462 152.679 Q 381.445 152.635 381.445 152.6 L 381.445 152.6 L 381.445 152.406 L 381.445 152.406 Q 381.445 152.239 381.607 152.05 L 381.607 152.05 L 381.607 152.05 Q 381.77 151.861 382.025 151.861 L 382.025 151.861 L 382.025 151.861 Q 382.482 151.861 382.631 152.318 L 382.631 152.318 L 382.737 152.626 L 382.737 152.626 Q 382.948 153.18 383.479 153.826 L 383.479 153.826 L 383.479 153.826 Q 384.011 154.472 384.011 154.797 L 384.011 154.797 L 384.011 154.797 Q 384.011 155.122 383.844 155.307 L 383.844 155.307 L 383.844 155.307 Q 383.677 155.491 383.405 155.491 L 383.405 155.491 L 383.405 155.491 Q 382.886 155.491 382.324 154.762 L 382.324 154.762 L 382.324 154.762 Q 381.612 153.892 380.241 153.892 L 380.241 153.892 L 380.241 153.892 Q 378.869 153.892 378.012 154.823 L 378.012 154.823 L 378.012 154.823 Q 377.156 155.755 377.156 157.192 L 377.156 157.192 L 377.156 157.192 Q 377.156 158.629 378.021 159.486 L 378.021 159.486 L 378.021 159.486 Q 378.887 160.343 380.17 160.343 L 380.17 160.343 L 380.17 160.343 Q 381.902 160.343 382.385 159.306 L 382.385 159.306 L 382.385 159.306 Q 382.693 158.743 383.079 158.743 Z  M 387.702 156.291 L 387.702 156.291 L 388.309 156.309 L 388.309 156.309 Q 388.608 156.317 390.225 156.317 L 390.225 156.317 L 390.225 156.317 Q 391.842 156.317 392.343 156.054 L 392.343 156.054 L 392.343 156.054 Q 392.844 155.79 392.844 155.254 L 392.844 155.254 L 392.844 155.254 Q 392.844 154.718 392.238 154.305 L 392.238 154.305 L 392.238 154.305 Q 391.631 153.892 390.893 153.892 L 390.893 153.892 L 390.893 153.892 Q 389.601 153.892 388.766 154.551 L 388.766 154.551 L 388.766 154.551 Q 387.931 155.21 387.702 156.291 Z  M 393.6 158.831 L 393.6 158.831 L 393.6 158.831 Q 394.373 158.831 394.373 159.525 L 394.373 159.525 L 394.373 159.525 Q 394.373 159.842 394.132 160.233 L 394.132 160.233 L 394.132 160.233 Q 393.89 160.624 393.424 160.958 L 393.424 160.958 L 393.424 160.958 Q 392.334 161.732 390.572 161.732 L 390.572 161.732 L 390.572 161.732 Q 388.81 161.732 387.518 160.545 L 387.518 160.545 L 387.518 160.545 Q 386.876 159.956 386.49 159.095 L 386.49 159.095 L 386.49 159.095 Q 386.103 158.233 386.103 157.205 L 386.103 157.205 L 386.103 157.205 Q 386.103 155.201 387.421 153.852 L 387.421 153.852 L 387.421 153.852 Q 388.74 152.503 390.743 152.503 L 390.743 152.503 L 390.743 152.503 Q 392.413 152.503 393.393 153.316 L 393.393 153.316 L 393.393 153.316 Q 394.373 154.129 394.373 155.315 L 394.373 155.315 L 394.373 155.315 Q 394.373 156.502 393.415 157.086 L 393.415 157.086 L 393.415 157.086 Q 392.457 157.671 389.777 157.671 L 389.777 157.671 L 389.777 157.671 Q 389.065 157.671 387.667 157.618 L 387.667 157.618 L 387.667 157.618 Q 387.825 158.981 388.722 159.662 L 388.722 159.662 L 388.722 159.662 Q 389.618 160.343 390.594 160.343 L 390.594 160.343 L 390.594 160.343 Q 391.57 160.343 392.137 160.128 L 392.137 160.128 L 392.137 160.128 Q 392.703 159.912 392.954 159.372 L 392.954 159.372 L 392.954 159.372 Q 393.204 158.831 393.6 158.831 Z  M 280.239 159.323 L 280.239 159.323 L 280.239 154.832 L 280.239 154.832 Q 280.239 154.7 280.256 154.577 L 280.256 154.577 L 280.256 154.577 Q 279.351 153.857 278.129 153.857 L 278.129 153.857 L 278.129 153.857 Q 276.907 153.857 276.029 154.815 L 276.029 154.815 L 276.029 154.815 Q 275.15 155.773 275.15 157.021 L 275.15 157.021 L 275.15 157.021 Q 275.15 158.638 275.949 159.49 L 275.949 159.49 L 275.949 159.49 Q 276.749 160.343 278.05 160.343 L 278.05 160.343 L 278.05 160.343 Q 279.351 160.343 280.239 159.323 Z  M 280.634 153.232 L 280.634 153.232 L 280.634 153.232 Q 281.047 152.503 281.856 152.503 L 281.856 152.503 L 281.856 152.503 Q 282.664 152.503 282.664 153.268 L 282.664 153.268 L 282.664 153.268 Q 282.664 153.637 282.308 153.87 L 282.308 153.87 L 282.308 153.87 Q 281.952 154.103 281.86 154.52 L 281.86 154.52 L 281.86 154.52 Q 281.768 154.938 281.768 156.115 L 281.768 156.115 L 281.768 161.521 L 281.768 161.521 Q 281.768 163.691 280.687 164.961 L 280.687 164.961 L 280.687 164.961 Q 279.606 166.232 277.804 166.232 L 277.804 166.232 L 277.804 166.232 Q 276.327 166.232 275.466 165.581 L 275.466 165.581 L 275.466 165.581 Q 274.605 164.931 274.605 163.973 L 274.605 163.973 L 274.605 163.973 Q 274.605 163.287 274.974 162.817 L 274.974 162.817 L 274.974 162.817 Q 275.343 162.347 275.923 162.347 L 275.923 162.347 L 275.923 162.347 Q 276.266 162.347 276.552 162.575 L 276.552 162.575 L 276.552 162.575 Q 276.837 162.804 276.837 163.067 L 276.837 163.067 L 276.837 163.067 Q 276.837 163.331 276.749 163.445 L 276.749 163.445 L 276.749 163.445 Q 276.661 163.56 276.56 163.656 L 276.56 163.656 L 276.56 163.656 Q 276.459 163.753 276.336 163.836 L 276.336 163.836 L 276.336 163.836 Q 276.213 163.92 276.213 164.061 L 276.213 164.061 L 276.213 164.061 Q 276.213 164.386 276.595 164.597 L 276.595 164.597 L 276.595 164.597 Q 276.978 164.808 277.672 164.808 L 277.672 164.808 L 277.672 164.808 Q 278.929 164.808 279.584 163.977 L 279.584 163.977 L 279.584 163.977 Q 280.239 163.147 280.239 161.635 L 280.239 161.635 L 280.239 160.853 L 280.239 160.853 Q 279.263 161.732 277.901 161.732 L 277.901 161.732 L 277.901 161.732 Q 276.09 161.732 274.851 160.51 L 274.851 160.51 L 274.851 160.51 Q 273.612 159.288 273.612 157.201 L 273.612 157.201 L 273.612 157.201 Q 273.612 155.113 274.93 153.808 L 274.93 153.808 L 274.93 153.808 Q 276.248 152.503 278.279 152.503 L 278.279 152.503 L 278.279 152.503 Q 279.316 152.503 280.151 152.916 L 280.151 152.916 L 280.151 152.916 Q 280.423 153.048 280.634 153.232 Z  M 290.539 159.209 L 290.539 157.943 L 290.539 157.943 Q 289.116 157.671 288.012 157.671 L 288.012 157.671 L 288.012 157.671 Q 286.909 157.671 286.387 158.106 L 286.387 158.106 L 286.387 158.106 Q 285.864 158.541 285.864 159.095 L 285.864 159.095 L 285.864 159.095 Q 285.864 159.649 286.347 160.004 L 286.347 160.004 L 286.347 160.004 Q 286.83 160.36 287.7 160.36 L 287.7 160.36 L 287.7 160.36 Q 289.485 160.36 290.539 159.209 L 290.539 159.209 Z  M 290.741 160.571 L 290.741 160.571 L 290.741 160.571 Q 289.775 161.732 287.533 161.732 L 287.533 161.732 L 287.533 161.732 Q 286.039 161.732 285.156 161.046 L 285.156 161.046 L 285.156 161.046 Q 284.273 160.36 284.273 159.191 L 284.273 159.191 L 284.273 159.191 Q 284.273 157.249 286.426 156.66 L 286.426 156.66 L 286.426 156.66 Q 287.156 156.467 288.311 156.467 L 288.311 156.467 L 288.311 156.467 Q 289.467 156.467 290.539 156.731 L 290.539 156.731 L 290.539 155.764 L 290.539 155.764 Q 290.539 154.314 289.379 153.988 L 289.379 153.988 L 289.379 153.988 Q 288.966 153.865 288.272 153.865 L 288.272 153.865 L 288.272 153.865 Q 286.786 153.865 286.558 154.656 L 286.558 154.656 L 286.558 154.656 Q 286.417 155.078 286.057 155.263 L 286.057 155.263 L 286.057 155.263 Q 285.899 155.342 285.697 155.342 L 285.697 155.342 L 285.697 155.342 Q 284.862 155.342 284.862 154.445 L 284.862 154.445 L 284.862 154.445 Q 284.862 153.681 285.868 153.092 L 285.868 153.092 L 285.868 153.092 Q 286.874 152.503 288.421 152.503 L 288.421 152.503 L 288.421 152.503 Q 291.04 152.503 291.805 154.357 L 291.805 154.357 L 291.805 154.357 Q 292.06 154.99 292.06 155.852 L 292.06 155.852 L 292.06 158.128 L 292.06 158.128 Q 292.06 159.323 292.157 159.732 L 292.157 159.732 L 292.157 159.732 Q 292.253 160.141 292.517 160.308 L 292.517 160.308 L 292.517 160.308 Q 292.983 160.607 292.983 161.002 L 292.983 161.002 L 292.983 161.002 Q 292.983 161.732 292.064 161.732 L 292.064 161.732 L 292.064 161.732 Q 291.146 161.732 290.741 160.571 Z  M 298.599 161.6 L 298.599 161.6 L 296.885 161.547 L 295.997 161.573 L 295.997 161.573 Q 295.655 161.6 295.215 161.6 L 295.215 161.6 L 295.215 161.6 Q 294.371 161.6 294.371 160.949 L 294.371 160.949 L 294.371 160.949 Q 294.371 160.633 294.635 160.457 L 294.635 160.457 L 294.635 160.457 Q 294.899 160.281 295.365 160.281 L 295.365 160.281 L 296.138 160.281 L 296.138 154.551 L 296.138 154.551 Q 296.138 154.024 295.927 154.024 L 295.927 154.024 L 295.927 154.024 Q 295.795 154.024 295.589 154.085 L 295.589 154.085 L 295.589 154.085 Q 295.382 154.147 295.092 154.147 L 295.092 154.147 L 295.092 154.147 Q 294.802 154.147 294.587 153.962 L 294.587 153.962 L 294.587 153.962 Q 294.371 153.777 294.371 153.461 L 294.371 153.461 L 294.371 153.461 Q 294.371 152.784 295.329 152.696 L 295.329 152.696 L 295.329 152.696 Q 295.909 152.644 296.279 152.538 L 296.279 152.538 L 296.279 152.538 Q 296.648 152.433 296.885 152.433 L 296.885 152.433 L 296.885 152.433 Q 297.685 152.433 297.685 153.276 L 297.685 153.276 L 297.685 154.27 L 297.685 154.27 Q 298.151 153.479 298.972 152.991 L 298.972 152.991 L 298.972 152.991 Q 299.794 152.503 300.585 152.503 L 300.585 152.503 L 300.585 152.503 Q 302.967 152.503 303.591 154.384 L 303.591 154.384 L 303.591 154.384 Q 304.031 153.549 304.883 153.026 L 304.883 153.026 L 304.883 153.026 Q 305.736 152.503 306.588 152.503 L 306.588 152.503 L 306.588 152.503 Q 308.205 152.503 308.992 153.342 L 308.992 153.342 L 308.992 153.342 Q 309.779 154.182 309.779 155.597 L 309.779 155.597 L 309.779 160.325 L 310.367 160.334 L 310.367 160.334 Q 311.475 160.334 311.475 161.028 L 311.475 161.028 L 311.475 161.028 Q 311.475 161.274 311.264 161.463 L 311.264 161.463 L 311.264 161.463 Q 311.053 161.652 310.71 161.652 L 310.71 161.652 L 310.71 161.652 Q 309.858 161.652 309.568 161.6 L 309.568 161.6 L 309.568 161.6 Q 309.278 161.547 308.979 161.547 L 308.979 161.547 L 308.979 161.547 Q 308.68 161.547 308.487 161.556 L 308.487 161.556 L 308.1 161.573 L 308.1 161.573 Q 307.783 161.6 307.291 161.6 L 307.291 161.6 L 307.291 161.6 Q 306.439 161.6 306.439 160.949 L 306.439 160.949 L 306.439 160.949 Q 306.439 160.633 306.707 160.457 L 306.707 160.457 L 306.707 160.457 Q 306.975 160.281 307.423 160.281 L 307.423 160.281 L 308.258 160.299 L 308.258 156.168 L 308.258 156.168 Q 308.258 153.909 306.509 153.909 L 306.509 153.909 L 306.509 153.909 Q 305.709 153.909 304.879 154.7 L 304.879 154.7 L 304.879 154.7 Q 304.048 155.491 303.767 156.643 L 303.767 156.643 L 303.767 160.281 L 304.356 160.281 L 304.356 160.281 Q 305.463 160.281 305.463 160.976 L 305.463 160.976 L 305.463 160.976 Q 305.463 161.222 305.252 161.411 L 305.252 161.411 L 305.252 161.411 Q 305.041 161.6 304.699 161.6 L 304.699 161.6 L 303.029 161.547 L 303.029 161.547 Q 302.659 161.547 302.475 161.556 L 302.475 161.556 L 302.088 161.573 L 302.088 161.573 Q 301.666 161.6 301.293 161.6 L 301.293 161.6 L 301.293 161.6 Q 300.919 161.6 300.678 161.433 L 300.678 161.433 L 300.678 161.433 Q 300.436 161.266 300.436 160.949 L 300.436 160.949 L 300.436 160.949 Q 300.436 160.633 300.717 160.457 L 300.717 160.457 L 300.717 160.457 Q 300.998 160.281 301.464 160.281 L 301.464 160.281 L 302.246 160.281 L 302.246 156.168 L 302.246 156.168 Q 302.246 153.909 300.471 153.909 L 300.471 153.909 L 300.471 153.909 Q 299.662 153.909 298.814 154.7 L 298.814 154.7 L 298.814 154.7 Q 297.966 155.491 297.685 156.643 L 297.685 156.643 L 297.685 160.281 L 298.256 160.281 L 298.256 160.281 Q 299.364 160.281 299.364 160.976 L 299.364 160.976 L 299.364 160.976 Q 299.364 161.222 299.153 161.411 L 299.153 161.411 L 299.153 161.411 Q 298.942 161.6 298.599 161.6 Z  M 316.819 161.6 L 316.819 161.6 L 315.166 161.547 L 315.166 161.547 Q 314.797 161.547 314.613 161.556 L 314.613 161.556 L 314.226 161.573 L 314.226 161.573 Q 313.786 161.6 313.452 161.6 L 313.452 161.6 L 313.452 161.6 Q 312.6 161.6 312.6 160.949 L 312.6 160.949 L 312.6 160.949 Q 312.6 160.633 312.868 160.457 L 312.868 160.457 L 312.868 160.457 Q 313.136 160.281 313.584 160.281 L 313.584 160.281 L 314.27 160.281 L 314.27 154.551 L 314.27 154.551 Q 314.27 154.024 314.041 154.024 L 314.041 154.024 L 314.041 154.024 Q 313.936 154.024 313.712 154.085 L 313.712 154.085 L 313.712 154.085 Q 313.488 154.147 313.211 154.147 L 313.211 154.147 L 313.211 154.147 Q 312.934 154.147 312.714 153.962 L 312.714 153.962 L 312.714 153.962 Q 312.494 153.777 312.494 153.461 L 312.494 153.461 L 312.494 153.461 Q 312.494 152.793 313.444 152.696 L 313.444 152.696 L 313.444 152.696 Q 314.032 152.644 314.406 152.538 L 314.406 152.538 L 314.406 152.538 Q 314.78 152.433 315.131 152.433 L 315.131 152.433 L 315.131 152.433 Q 315.79 152.433 315.79 153.276 L 315.79 153.276 L 315.79 160.281 L 316.485 160.281 L 316.485 160.281 Q 317.592 160.281 317.592 160.976 L 317.592 160.976 L 317.592 160.976 Q 317.592 161.222 317.377 161.411 L 317.377 161.411 L 317.377 161.411 Q 317.161 161.6 316.819 161.6 Z  M 316.116 149.418 L 316.116 149.418 L 316.116 149.418 Q 316.116 150.271 315.395 150.525 L 315.395 150.525 L 315.395 150.525 Q 315.193 150.596 314.824 150.596 L 314.824 150.596 L 314.824 150.596 Q 314.454 150.596 314.147 150.306 L 314.147 150.306 L 314.147 150.306 Q 313.839 150.016 313.839 149.55 L 313.839 149.55 L 313.839 149.55 Q 313.839 149.084 314.16 148.776 L 314.16 148.776 L 314.16 148.776 Q 314.481 148.469 315.004 148.469 L 315.004 148.469 L 315.004 148.469 Q 315.527 148.469 315.821 148.746 L 315.821 148.746 L 315.821 148.746 Q 316.116 149.023 316.116 149.418 Z  M 320.791 161.547 L 319.121 161.6 L 319.121 161.6 Q 318.278 161.6 318.278 160.949 L 318.278 160.949 L 318.278 160.949 Q 318.278 160.633 318.541 160.457 L 318.541 160.457 L 318.541 160.457 Q 318.805 160.281 319.271 160.281 L 319.271 160.281 L 320.053 160.281 L 320.053 154.551 L 320.053 154.551 Q 320.053 154.024 319.824 154.024 L 319.824 154.024 L 319.824 154.024 Q 319.701 154.024 319.499 154.085 L 319.499 154.085 L 319.499 154.085 Q 319.297 154.147 319.007 154.147 L 319.007 154.147 L 319.007 154.147 Q 318.717 154.147 318.497 153.962 L 318.497 153.962 L 318.497 153.962 Q 318.278 153.777 318.278 153.461 L 318.278 153.461 L 318.278 153.461 Q 318.278 152.793 319.227 152.696 L 319.227 152.696 L 319.227 152.696 Q 319.728 152.652 320.163 152.543 L 320.163 152.543 L 320.163 152.543 Q 320.598 152.433 320.932 152.433 L 320.932 152.433 L 320.932 152.433 Q 321.574 152.433 321.574 153.276 L 321.574 153.276 L 321.574 154.428 L 321.574 154.428 Q 321.951 153.584 322.813 153.044 L 322.813 153.044 L 322.813 153.044 Q 323.674 152.503 324.632 152.503 L 324.632 152.503 L 324.632 152.503 Q 326.337 152.503 327.049 153.364 L 327.049 153.364 L 327.049 153.364 Q 327.761 154.226 327.761 155.685 L 327.761 155.685 L 327.761 160.281 L 328.35 160.281 L 328.35 160.281 Q 329.457 160.281 329.457 160.976 L 329.457 160.976 L 329.457 160.976 Q 329.457 161.222 329.246 161.411 L 329.246 161.411 L 329.246 161.411 Q 329.035 161.6 328.526 161.6 L 328.526 161.6 L 326.979 161.547 L 325.309 161.6 L 325.309 161.6 Q 324.465 161.6 324.465 160.949 L 324.465 160.949 L 324.465 160.949 Q 324.465 160.633 324.729 160.457 L 324.729 160.457 L 324.729 160.457 Q 324.992 160.281 325.458 160.281 L 325.458 160.281 L 326.223 160.281 L 326.223 156.256 L 326.223 156.256 Q 326.223 154.41 325.291 154.041 L 325.291 154.041 L 325.291 154.041 Q 324.966 153.909 324.509 153.909 L 324.509 153.909 L 324.509 153.909 Q 323.569 153.909 322.712 154.63 L 322.712 154.63 L 322.712 154.63 Q 321.855 155.351 321.574 156.458 L 321.574 156.458 L 321.574 160.281 L 322.162 160.281 L 322.162 160.281 Q 323.27 160.281 323.27 160.976 L 323.27 160.976 L 323.27 160.976 Q 323.27 161.222 323.059 161.411 L 323.059 161.411 L 323.059 161.411 Q 322.848 161.6 322.338 161.6 L 322.338 161.6 L 320.791 161.547 Z  M 337.139 159.323 L 337.139 159.323 L 337.139 154.832 L 337.139 154.832 Q 337.139 154.7 337.157 154.577 L 337.157 154.577 L 337.157 154.577 Q 336.251 153.857 335.03 153.857 L 335.03 153.857 L 335.03 153.857 Q 333.808 153.857 332.929 154.815 L 332.929 154.815 L 332.929 154.815 Q 332.05 155.773 332.05 157.021 L 332.05 157.021 L 332.05 157.021 Q 332.05 158.638 332.85 159.49 L 332.85 159.49 L 332.85 159.49 Q 333.65 160.343 334.95 160.343 L 334.95 160.343 L 334.95 160.343 Q 336.251 160.343 337.139 159.323 Z  M 337.534 153.232 L 337.534 153.232 L 337.534 153.232 Q 337.948 152.503 338.756 152.503 L 338.756 152.503 L 338.756 152.503 Q 339.565 152.503 339.565 153.268 L 339.565 153.268 L 339.565 153.268 Q 339.565 153.637 339.209 153.87 L 339.209 153.87 L 339.209 153.87 Q 338.853 154.103 338.761 154.52 L 338.761 154.52 L 338.761 154.52 Q 338.668 154.938 338.668 156.115 L 338.668 156.115 L 338.668 161.521 L 338.668 161.521 Q 338.668 163.691 337.587 164.961 L 337.587 164.961 L 337.587 164.961 Q 336.506 166.232 334.704 166.232 L 334.704 166.232 L 334.704 166.232 Q 333.228 166.232 332.366 165.581 L 332.366 165.581 L 332.366 165.581 Q 331.505 164.931 331.505 163.973 L 331.505 163.973 L 331.505 163.973 Q 331.505 163.287 331.874 162.817 L 331.874 162.817 L 331.874 162.817 Q 332.243 162.347 332.824 162.347 L 332.824 162.347 L 332.824 162.347 Q 333.166 162.347 333.452 162.575 L 333.452 162.575 L 333.452 162.575 Q 333.738 162.804 333.738 163.067 L 333.738 163.067 L 333.738 163.067 Q 333.738 163.331 333.65 163.445 L 333.65 163.445 L 333.65 163.445 Q 333.562 163.56 333.461 163.656 L 333.461 163.656 L 333.461 163.656 Q 333.36 163.753 333.237 163.836 L 333.237 163.836 L 333.237 163.836 Q 333.114 163.92 333.114 164.061 L 333.114 164.061 L 333.114 164.061 Q 333.114 164.386 333.496 164.597 L 333.496 164.597 L 333.496 164.597 Q 333.878 164.808 334.573 164.808 L 334.573 164.808 L 334.573 164.808 Q 335.829 164.808 336.484 163.977 L 336.484 163.977 L 336.484 163.977 Q 337.139 163.147 337.139 161.635 L 337.139 161.635 L 337.139 160.853 L 337.139 160.853 Q 336.163 161.732 334.801 161.732 L 334.801 161.732 L 334.801 161.732 Q 332.991 161.732 331.751 160.51 L 331.751 160.51 L 331.751 160.51 Q 330.512 159.288 330.512 157.201 L 330.512 157.201 L 330.512 157.201 Q 330.512 155.113 331.83 153.808 L 331.83 153.808 L 331.83 153.808 Q 333.149 152.503 335.179 152.503 L 335.179 152.503 L 335.179 152.503 Q 336.216 152.503 337.051 152.916 L 337.051 152.916 L 337.051 152.916 Q 337.324 153.048 337.534 153.232 Z  M 187.092 159.209 L 187.092 157.943 L 187.092 157.943 Q 185.668 157.671 184.565 157.671 L 184.565 157.671 L 184.565 157.671 Q 183.462 157.671 182.939 158.106 L 182.939 158.106 L 182.939 158.106 Q 182.416 158.541 182.416 159.095 L 182.416 159.095 L 182.416 159.095 Q 182.416 159.649 182.9 160.004 L 182.9 160.004 L 182.9 160.004 Q 183.383 160.36 184.253 160.36 L 184.253 160.36 L 184.253 160.36 Q 186.037 160.36 187.092 159.209 L 187.092 159.209 Z  M 187.294 160.571 L 187.294 160.571 L 187.294 160.571 Q 186.327 161.732 184.086 161.732 L 184.086 161.732 L 184.086 161.732 Q 182.592 161.732 181.709 161.046 L 181.709 161.046 L 181.709 161.046 Q 180.825 160.36 180.825 159.191 L 180.825 159.191 L 180.825 159.191 Q 180.825 157.249 182.979 156.66 L 182.979 156.66 L 182.979 156.66 Q 183.708 156.467 184.864 156.467 L 184.864 156.467 L 184.864 156.467 Q 186.02 156.467 187.092 156.731 L 187.092 156.731 L 187.092 155.764 L 187.092 155.764 Q 187.092 154.314 185.932 153.988 L 185.932 153.988 L 185.932 153.988 Q 185.519 153.865 184.824 153.865 L 184.824 153.865 L 184.824 153.865 Q 183.339 153.865 183.111 154.656 L 183.111 154.656 L 183.111 154.656 Q 182.97 155.078 182.61 155.263 L 182.61 155.263 L 182.61 155.263 Q 182.451 155.342 182.249 155.342 L 182.249 155.342 L 182.249 155.342 Q 181.414 155.342 181.414 154.445 L 181.414 154.445 L 181.414 154.445 Q 181.414 153.681 182.421 153.092 L 182.421 153.092 L 182.421 153.092 Q 183.427 152.503 184.974 152.503 L 184.974 152.503 L 184.974 152.503 Q 187.593 152.503 188.358 154.357 L 188.358 154.357 L 188.358 154.357 Q 188.613 154.99 188.613 155.852 L 188.613 155.852 L 188.613 158.128 L 188.613 158.128 Q 188.613 159.323 188.709 159.732 L 188.709 159.732 L 188.709 159.732 Q 188.806 160.141 189.07 160.308 L 189.07 160.308 L 189.07 160.308 Q 189.535 160.607 189.535 161.002 L 189.535 161.002 L 189.535 161.002 Q 189.535 161.732 188.617 161.732 L 188.617 161.732 L 188.617 161.732 Q 187.699 161.732 187.294 160.571 Z  M 196.118 153.874 L 196.118 153.874 L 196.118 153.874 Q 194.528 153.874 193.552 155.245 L 193.552 155.245 L 193.552 159.49 L 193.552 159.49 Q 194.44 160.343 195.828 160.343 L 195.828 160.343 L 195.828 160.343 Q 197.217 160.343 198.039 159.38 L 198.039 159.38 L 198.039 159.38 Q 198.861 158.418 198.861 157.135 L 198.861 157.135 L 198.861 157.135 Q 198.861 154.665 197.226 154.059 L 197.226 154.059 L 197.226 154.059 Q 196.725 153.874 196.118 153.874 Z  M 193.552 153.347 L 193.552 153.663 L 193.552 153.663 Q 194.58 152.503 196.316 152.503 L 196.316 152.503 L 196.316 152.503 Q 198.052 152.503 199.221 153.646 L 199.221 153.646 L 199.221 153.646 Q 200.39 154.788 200.39 156.902 L 200.39 156.902 L 200.39 156.902 Q 200.39 159.016 199.098 160.374 L 199.098 160.374 L 199.098 160.374 Q 197.806 161.732 195.758 161.732 L 195.758 161.732 L 195.758 161.732 Q 194.87 161.732 194.018 161.354 L 194.018 161.354 L 194.018 161.354 Q 193.754 161.239 193.552 161.081 L 193.552 161.081 L 193.552 162.83 L 193.552 162.83 Q 193.552 164.14 193.789 164.535 L 193.789 164.535 L 193.789 164.535 Q 193.886 164.693 194.079 164.816 L 194.079 164.816 L 194.079 164.816 Q 194.457 165.054 194.457 165.405 L 194.457 165.405 L 194.457 165.405 Q 194.457 166.196 193.578 166.196 L 193.578 166.196 L 193.578 166.196 Q 192.506 166.196 192.155 164.72 L 192.155 164.72 L 192.155 164.72 Q 192.032 164.228 192.032 163.568 L 192.032 163.568 L 192.032 154.621 L 192.032 154.621 Q 192.032 154.287 191.97 154.199 L 191.97 154.199 L 191.97 154.199 Q 191.908 154.111 191.794 154.111 L 191.794 154.111 L 191.047 154.217 L 191.047 154.217 Q 190.696 154.217 190.476 154.037 L 190.476 154.037 L 190.476 154.037 Q 190.256 153.857 190.256 153.531 L 190.256 153.531 L 190.256 153.531 Q 190.256 152.863 191.214 152.775 L 191.214 152.775 L 191.214 152.775 Q 191.75 152.723 192.023 152.652 L 192.023 152.652 L 192.453 152.547 L 192.453 152.547 Q 192.612 152.503 192.924 152.503 L 192.924 152.503 L 192.924 152.503 Q 193.236 152.503 193.394 152.74 L 193.394 152.74 L 193.394 152.74 Q 193.552 152.978 193.552 153.347 L 193.552 153.347 Z  M 208.08 159.209 L 208.08 157.943 L 208.08 157.943 Q 206.657 157.671 205.553 157.671 L 205.553 157.671 L 205.553 157.671 Q 204.45 157.671 203.928 158.106 L 203.928 158.106 L 203.928 158.106 Q 203.405 158.541 203.405 159.095 L 203.405 159.095 L 203.405 159.095 Q 203.405 159.649 203.888 160.004 L 203.888 160.004 L 203.888 160.004 Q 204.371 160.36 205.241 160.36 L 205.241 160.36 L 205.241 160.36 Q 207.026 160.36 208.08 159.209 L 208.08 159.209 Z  M 208.282 160.571 L 208.282 160.571 L 208.282 160.571 Q 207.316 161.732 205.074 161.732 L 205.074 161.732 L 205.074 161.732 Q 203.58 161.732 202.697 161.046 L 202.697 161.046 L 202.697 161.046 Q 201.814 160.36 201.814 159.191 L 201.814 159.191 L 201.814 159.191 Q 201.814 157.249 203.967 156.66 L 203.967 156.66 L 203.967 156.66 Q 204.697 156.467 205.852 156.467 L 205.852 156.467 L 205.852 156.467 Q 207.008 156.467 208.08 156.731 L 208.08 156.731 L 208.08 155.764 L 208.08 155.764 Q 208.08 154.314 206.92 153.988 L 206.92 153.988 L 206.92 153.988 Q 206.507 153.865 205.813 153.865 L 205.813 153.865 L 205.813 153.865 Q 204.327 153.865 204.099 154.656 L 204.099 154.656 L 204.099 154.656 Q 203.958 155.078 203.598 155.263 L 203.598 155.263 L 203.598 155.263 Q 203.44 155.342 203.238 155.342 L 203.238 155.342 L 203.238 155.342 Q 202.403 155.342 202.403 154.445 L 202.403 154.445 L 202.403 154.445 Q 202.403 153.681 203.409 153.092 L 203.409 153.092 L 203.409 153.092 Q 204.415 152.503 205.962 152.503 L 205.962 152.503 L 205.962 152.503 Q 208.581 152.503 209.346 154.357 L 209.346 154.357 L 209.346 154.357 Q 209.601 154.99 209.601 155.852 L 209.601 155.852 L 209.601 158.128 L 209.601 158.128 Q 209.601 159.323 209.698 159.732 L 209.698 159.732 L 209.698 159.732 Q 209.794 160.141 210.058 160.308 L 210.058 160.308 L 210.058 160.308 Q 210.524 160.607 210.524 161.002 L 210.524 161.002 L 210.524 161.002 Q 210.524 161.732 209.605 161.732 L 209.605 161.732 L 209.605 161.732 Q 208.687 161.732 208.282 160.571 Z  M 215.164 150.2 L 215.085 152.696 L 217.309 152.635 L 217.309 152.635 Q 217.827 152.635 218.038 152.824 L 218.038 152.824 L 218.038 152.824 Q 218.249 153.013 218.249 153.285 L 218.249 153.285 L 218.249 153.285 Q 218.249 153.558 218.012 153.769 L 218.012 153.769 L 218.012 153.769 Q 217.775 153.98 217.296 153.98 L 217.296 153.98 L 217.296 153.98 Q 216.817 153.98 215.964 153.936 L 215.964 153.936 L 215.085 153.909 L 215.085 158.128 L 215.085 158.128 Q 215.085 159.438 215.274 159.798 L 215.274 159.798 L 215.274 159.798 Q 215.463 160.158 215.652 160.246 L 215.652 160.246 L 215.652 160.246 Q 215.841 160.334 216.228 160.334 L 216.228 160.334 L 216.228 160.334 Q 216.615 160.334 216.957 160.022 L 216.957 160.022 L 216.957 160.022 Q 217.3 159.71 217.463 159.609 L 217.463 159.609 L 217.463 159.609 Q 217.625 159.508 217.885 159.508 L 217.885 159.508 L 217.885 159.508 Q 218.144 159.508 218.324 159.71 L 218.324 159.71 L 218.324 159.71 Q 218.504 159.912 218.504 160.185 L 218.504 160.185 L 218.504 160.185 Q 218.504 160.756 217.788 161.244 L 217.788 161.244 L 217.788 161.244 Q 217.072 161.732 216.281 161.732 L 216.281 161.732 L 216.281 161.732 Q 214.901 161.732 214.228 161.015 L 214.228 161.015 L 214.228 161.015 Q 213.556 160.299 213.556 159.13 L 213.556 159.13 L 213.556 153.971 L 213.556 153.971 Q 213.248 153.997 212.884 153.997 L 212.884 153.997 L 212.884 153.997 Q 212.519 153.997 212.286 153.804 L 212.286 153.804 L 212.286 153.804 Q 212.053 153.61 212.053 153.298 L 212.053 153.298 L 212.053 153.298 Q 212.053 152.986 212.286 152.811 L 212.286 152.811 L 212.286 152.811 Q 212.519 152.635 212.857 152.635 L 212.857 152.635 L 212.857 152.635 Q 213.196 152.635 213.547 152.652 L 213.547 152.652 L 213.547 152.652 Q 213.538 152.362 213.53 151.967 L 213.53 151.967 L 213.494 151.193 L 213.494 151.193 Q 213.486 150.807 213.472 150.508 L 213.472 150.508 L 213.472 150.508 Q 213.459 150.209 213.459 150.112 L 213.459 150.112 L 213.459 150.112 Q 213.459 149.664 213.705 149.444 L 213.705 149.444 L 213.705 149.444 Q 213.951 149.225 214.321 149.225 L 214.321 149.225 L 214.321 149.225 Q 215.164 149.225 215.164 150.2 L 215.164 150.2 Z  M 223.602 161.6 L 223.602 161.6 L 221.949 161.547 L 221.949 161.547 Q 221.58 161.547 221.396 161.556 L 221.396 161.556 L 221.009 161.573 L 221.009 161.573 Q 220.57 161.6 220.236 161.6 L 220.236 161.6 L 220.236 161.6 Q 219.383 161.6 219.383 160.949 L 219.383 160.949 L 219.383 160.949 Q 219.383 160.633 219.651 160.457 L 219.651 160.457 L 219.651 160.457 Q 219.919 160.281 220.367 160.281 L 220.367 160.281 L 221.158 160.281 L 221.158 149.717 L 221.158 149.717 Q 221.158 149.19 220.948 149.19 L 220.948 149.19 L 220.948 149.19 Q 220.86 149.19 220.772 149.207 L 220.772 149.207 L 220.57 149.26 L 220.57 149.26 Q 220.332 149.304 220.077 149.304 L 220.077 149.304 L 220.077 149.304 Q 219.823 149.304 219.603 149.128 L 219.603 149.128 L 219.603 149.128 Q 219.383 148.952 219.383 148.627 L 219.383 148.627 L 219.383 148.627 Q 219.383 147.968 220.332 147.871 L 220.332 147.871 L 220.332 147.871 Q 220.93 147.818 221.308 147.704 L 221.308 147.704 L 221.308 147.704 Q 221.686 147.59 222.02 147.59 L 222.02 147.59 L 222.02 147.59 Q 222.679 147.59 222.679 148.442 L 222.679 148.442 L 222.679 154.375 L 222.679 154.375 Q 223.057 153.61 223.901 153.057 L 223.901 153.057 L 223.901 153.057 Q 224.744 152.503 225.685 152.503 L 225.685 152.503 L 225.685 152.503 Q 228.858 152.503 228.858 155.597 L 228.858 155.597 L 228.858 160.281 L 229.447 160.281 L 229.447 160.281 Q 230.554 160.281 230.554 160.976 L 230.554 160.976 L 230.554 160.976 Q 230.554 161.222 230.343 161.411 L 230.343 161.411 L 230.343 161.411 Q 230.132 161.6 229.789 161.6 L 229.789 161.6 L 228.119 161.547 L 228.119 161.547 Q 227.75 161.547 227.566 161.556 L 227.566 161.556 L 227.179 161.573 L 227.179 161.573 Q 226.757 161.6 226.406 161.6 L 226.406 161.6 L 226.406 161.6 Q 225.562 161.6 225.562 160.949 L 225.562 160.949 L 225.562 160.949 Q 225.562 160.633 225.825 160.457 L 225.825 160.457 L 225.825 160.457 Q 226.089 160.281 226.555 160.281 L 226.555 160.281 L 227.32 160.281 L 227.32 156.168 L 227.32 156.168 Q 227.32 154.322 226.282 154.006 L 226.282 154.006 L 226.282 154.006 Q 225.949 153.909 225.509 153.909 L 225.509 153.909 L 225.509 153.909 Q 224.595 153.909 223.773 154.661 L 223.773 154.661 L 223.773 154.661 Q 222.951 155.412 222.679 156.52 L 222.679 156.52 L 222.679 160.281 L 223.268 160.281 L 223.268 160.281 Q 224.375 160.281 224.375 160.976 L 224.375 160.976 L 224.375 160.976 Q 224.375 161.222 224.16 161.411 L 224.16 161.411 L 224.16 161.411 Q 223.945 161.6 223.602 161.6 Z  M 233.331 156.291 L 233.331 156.291 L 233.938 156.309 L 233.938 156.309 Q 234.237 156.317 235.854 156.317 L 235.854 156.317 L 235.854 156.317 Q 237.471 156.317 237.972 156.054 L 237.972 156.054 L 237.972 156.054 Q 238.473 155.79 238.473 155.254 L 238.473 155.254 L 238.473 155.254 Q 238.473 154.718 237.866 154.305 L 237.866 154.305 L 237.866 154.305 Q 237.26 153.892 236.522 153.892 L 236.522 153.892 L 236.522 153.892 Q 235.23 153.892 234.395 154.551 L 234.395 154.551 L 234.395 154.551 Q 233.56 155.21 233.331 156.291 Z  M 239.229 158.831 L 239.229 158.831 L 239.229 158.831 Q 240.002 158.831 240.002 159.525 L 240.002 159.525 L 240.002 159.525 Q 240.002 159.842 239.761 160.233 L 239.761 160.233 L 239.761 160.233 Q 239.519 160.624 239.053 160.958 L 239.053 160.958 L 239.053 160.958 Q 237.963 161.732 236.201 161.732 L 236.201 161.732 L 236.201 161.732 Q 234.439 161.732 233.147 160.545 L 233.147 160.545 L 233.147 160.545 Q 232.505 159.956 232.118 159.095 L 232.118 159.095 L 232.118 159.095 Q 231.732 158.233 231.732 157.205 L 231.732 157.205 L 231.732 157.205 Q 231.732 155.201 233.05 153.852 L 233.05 153.852 L 233.05 153.852 Q 234.368 152.503 236.372 152.503 L 236.372 152.503 L 236.372 152.503 Q 238.042 152.503 239.022 153.316 L 239.022 153.316 L 239.022 153.316 Q 240.002 154.129 240.002 155.315 L 240.002 155.315 L 240.002 155.315 Q 240.002 156.502 239.044 157.086 L 239.044 157.086 L 239.044 157.086 Q 238.086 157.671 235.406 157.671 L 235.406 157.671 L 235.406 157.671 Q 234.694 157.671 233.296 157.618 L 233.296 157.618 L 233.296 157.618 Q 233.454 158.981 234.351 159.662 L 234.351 159.662 L 234.351 159.662 Q 235.247 160.343 236.223 160.343 L 236.223 160.343 L 236.223 160.343 Q 237.199 160.343 237.765 160.128 L 237.765 160.128 L 237.765 160.128 Q 238.332 159.912 238.583 159.372 L 238.583 159.372 L 238.583 159.372 Q 238.833 158.831 239.229 158.831 Z  M 245.135 150.2 L 245.056 152.696 L 247.28 152.635 L 247.28 152.635 Q 247.798 152.635 248.009 152.824 L 248.009 152.824 L 248.009 152.824 Q 248.22 153.013 248.22 153.285 L 248.22 153.285 L 248.22 153.285 Q 248.22 153.558 247.983 153.769 L 247.983 153.769 L 247.983 153.769 Q 247.745 153.98 247.266 153.98 L 247.266 153.98 L 247.266 153.98 Q 246.787 153.98 245.935 153.936 L 245.935 153.936 L 245.056 153.909 L 245.056 158.128 L 245.056 158.128 Q 245.056 159.438 245.245 159.798 L 245.245 159.798 L 245.245 159.798 Q 245.434 160.158 245.623 160.246 L 245.623 160.246 L 245.623 160.246 Q 245.812 160.334 246.199 160.334 L 246.199 160.334 L 246.199 160.334 Q 246.585 160.334 246.928 160.022 L 246.928 160.022 L 246.928 160.022 Q 247.271 159.71 247.433 159.609 L 247.433 159.609 L 247.433 159.609 Q 247.596 159.508 247.855 159.508 L 247.855 159.508 L 247.855 159.508 Q 248.115 159.508 248.295 159.71 L 248.295 159.71 L 248.295 159.71 Q 248.475 159.912 248.475 160.185 L 248.475 160.185 L 248.475 160.185 Q 248.475 160.756 247.759 161.244 L 247.759 161.244 L 247.759 161.244 Q 247.042 161.732 246.251 161.732 L 246.251 161.732 L 246.251 161.732 Q 244.871 161.732 244.199 161.015 L 244.199 161.015 L 244.199 161.015 Q 243.527 160.299 243.527 159.13 L 243.527 159.13 L 243.527 153.971 L 243.527 153.971 Q 243.219 153.997 242.854 153.997 L 242.854 153.997 L 242.854 153.997 Q 242.49 153.997 242.257 153.804 L 242.257 153.804 L 242.257 153.804 Q 242.024 153.61 242.024 153.298 L 242.024 153.298 L 242.024 153.298 Q 242.024 152.986 242.257 152.811 L 242.257 152.811 L 242.257 152.811 Q 242.49 152.635 242.828 152.635 L 242.828 152.635 L 242.828 152.635 Q 243.166 152.635 243.518 152.652 L 243.518 152.652 L 243.518 152.652 Q 243.509 152.362 243.5 151.967 L 243.5 151.967 L 243.465 151.193 L 243.465 151.193 Q 243.456 150.807 243.443 150.508 L 243.443 150.508 L 243.443 150.508 Q 243.43 150.209 243.43 150.112 L 243.43 150.112 L 243.43 150.112 Q 243.43 149.664 243.676 149.444 L 243.676 149.444 L 243.676 149.444 Q 243.922 149.225 244.291 149.225 L 244.291 149.225 L 244.291 149.225 Q 245.135 149.225 245.135 150.2 L 245.135 150.2 Z  M 253.889 161.6 L 253.889 161.6 L 252.237 161.547 L 252.237 161.547 Q 251.867 161.547 251.683 161.556 L 251.683 161.556 L 251.296 161.573 L 251.296 161.573 Q 250.857 161.6 250.523 161.6 L 250.523 161.6 L 250.523 161.6 Q 249.67 161.6 249.67 160.949 L 249.67 160.949 L 249.67 160.949 Q 249.67 160.633 249.938 160.457 L 249.938 160.457 L 249.938 160.457 Q 250.206 160.281 250.655 160.281 L 250.655 160.281 L 251.34 160.281 L 251.34 154.551 L 251.34 154.551 Q 251.34 154.024 251.112 154.024 L 251.112 154.024 L 251.112 154.024 Q 251.006 154.024 250.782 154.085 L 250.782 154.085 L 250.782 154.085 Q 250.558 154.147 250.281 154.147 L 250.281 154.147 L 250.281 154.147 Q 250.004 154.147 249.784 153.962 L 249.784 153.962 L 249.784 153.962 Q 249.565 153.777 249.565 153.461 L 249.565 153.461 L 249.565 153.461 Q 249.565 152.793 250.514 152.696 L 250.514 152.696 L 250.514 152.696 Q 251.103 152.644 251.476 152.538 L 251.476 152.538 L 251.476 152.538 Q 251.85 152.433 252.201 152.433 L 252.201 152.433 L 252.201 152.433 Q 252.861 152.433 252.861 153.276 L 252.861 153.276 L 252.861 160.281 L 253.555 160.281 L 253.555 160.281 Q 254.662 160.281 254.662 160.976 L 254.662 160.976 L 254.662 160.976 Q 254.662 161.222 254.447 161.411 L 254.447 161.411 L 254.447 161.411 Q 254.232 161.6 253.889 161.6 Z  M 253.186 149.418 L 253.186 149.418 L 253.186 149.418 Q 253.186 150.271 252.465 150.525 L 252.465 150.525 L 252.465 150.525 Q 252.263 150.596 251.894 150.596 L 251.894 150.596 L 251.894 150.596 Q 251.525 150.596 251.217 150.306 L 251.217 150.306 L 251.217 150.306 Q 250.909 150.016 250.909 149.55 L 250.909 149.55 L 250.909 149.55 Q 250.909 149.084 251.23 148.776 L 251.23 148.776 L 251.23 148.776 Q 251.551 148.469 252.074 148.469 L 252.074 148.469 L 252.074 148.469 Q 252.597 148.469 252.891 148.746 L 252.891 148.746 L 252.891 148.746 Q 253.186 149.023 253.186 149.418 Z  M 263.179 158.743 L 263.179 158.743 L 263.179 158.743 Q 263.961 158.743 263.961 159.438 L 263.961 159.438 L 263.961 159.438 Q 263.961 159.754 263.711 160.158 L 263.711 160.158 L 263.711 160.158 Q 263.46 160.563 262.977 160.914 L 262.977 160.914 L 262.977 160.914 Q 261.852 161.732 260.098 161.732 L 260.098 161.732 L 260.098 161.732 Q 258.345 161.732 257.088 160.563 L 257.088 160.563 L 257.088 160.563 Q 256.473 159.982 256.099 159.117 L 256.099 159.117 L 256.099 159.117 Q 255.726 158.251 255.726 157.205 L 255.726 157.205 L 255.726 157.205 Q 255.726 155.192 257.071 153.848 L 257.071 153.848 L 257.071 153.848 Q 258.415 152.503 260.446 152.503 L 260.446 152.503 L 260.446 152.503 Q 260.999 152.503 261.562 152.679 L 261.562 152.679 L 261.562 152.679 Q 261.544 152.635 261.544 152.6 L 261.544 152.6 L 261.544 152.406 L 261.544 152.406 Q 261.544 152.239 261.707 152.05 L 261.707 152.05 L 261.707 152.05 Q 261.869 151.861 262.124 151.861 L 262.124 151.861 L 262.124 151.861 Q 262.581 151.861 262.731 152.318 L 262.731 152.318 L 262.836 152.626 L 262.836 152.626 Q 263.047 153.18 263.579 153.826 L 263.579 153.826 L 263.579 153.826 Q 264.111 154.472 264.111 154.797 L 264.111 154.797 L 264.111 154.797 Q 264.111 155.122 263.944 155.307 L 263.944 155.307 L 263.944 155.307 Q 263.777 155.491 263.504 155.491 L 263.504 155.491 L 263.504 155.491 Q 262.986 155.491 262.423 154.762 L 262.423 154.762 L 262.423 154.762 Q 261.711 153.892 260.34 153.892 L 260.34 153.892 L 260.34 153.892 Q 258.969 153.892 258.112 154.823 L 258.112 154.823 L 258.112 154.823 Q 257.255 155.755 257.255 157.192 L 257.255 157.192 L 257.255 157.192 Q 257.255 158.629 258.121 159.486 L 258.121 159.486 L 258.121 159.486 Q 258.987 160.343 260.27 160.343 L 260.27 160.343 L 260.27 160.343 Q 262.001 160.343 262.485 159.306 L 262.485 159.306 L 262.485 159.306 Q 262.792 158.743 263.179 158.743 Z  M 120.55 161.6 L 120.55 161.6 L 118.792 161.652 L 118.792 161.652 Q 118.397 161.652 118.168 161.463 L 118.168 161.463 L 118.168 161.463 Q 117.94 161.274 117.94 160.958 L 117.94 160.958 L 117.94 160.958 Q 117.94 160.642 118.208 160.44 L 118.208 160.44 L 118.208 160.44 Q 118.476 160.237 118.924 160.237 L 118.924 160.237 L 119.513 160.237 L 119.513 149.409 L 119.17 149.409 L 119.17 149.409 Q 118.406 149.409 118.08 149.176 L 118.08 149.176 L 118.08 149.176 Q 117.755 148.943 117.755 148.601 L 117.755 148.601 L 117.755 148.601 Q 117.755 147.933 118.977 147.933 L 118.977 147.933 L 123.02 148.056 L 123.02 148.056 Q 124.268 148.056 125.323 147.862 L 125.323 147.862 L 125.323 147.862 Q 125.279 147.722 125.279 147.559 L 125.279 147.559 L 125.279 147.559 Q 125.279 147.397 125.446 147.234 L 125.446 147.234 L 125.446 147.234 Q 125.613 147.071 125.929 147.071 L 125.929 147.071 L 125.929 147.071 Q 126.72 147.071 127.713 149.787 L 127.713 149.787 L 127.713 149.787 Q 127.898 150.297 127.898 150.561 L 127.898 150.561 L 127.898 150.561 Q 127.898 151.167 127.353 151.167 L 127.353 151.167 L 127.353 151.167 Q 126.869 151.167 126.544 150.227 L 126.544 150.227 L 126.544 150.227 Q 126.342 149.647 125.898 149.414 L 125.898 149.414 L 125.898 149.414 Q 125.454 149.181 124.769 149.181 L 124.769 149.181 L 124.567 149.181 L 124.567 149.181 Q 124.452 149.181 124.233 149.19 L 124.233 149.19 L 123.723 149.225 L 123.723 149.225 Q 123.565 149.233 123.244 149.26 L 123.244 149.26 L 123.244 149.26 Q 122.923 149.286 122.545 149.313 L 122.545 149.313 L 121.148 149.409 L 121.148 153.848 L 121.148 153.848 Q 123.389 153.848 123.67 153.786 L 123.67 153.786 L 123.67 153.786 Q 123.951 153.725 124.092 153.602 L 124.092 153.602 L 124.092 153.602 Q 124.233 153.479 124.285 153.145 L 124.285 153.145 L 124.285 153.145 Q 124.4 152.494 125.059 152.494 L 125.059 152.494 L 125.059 152.494 Q 125.243 152.494 125.415 152.622 L 125.415 152.622 L 125.415 152.622 Q 125.586 152.749 125.586 152.982 L 125.586 152.982 L 125.586 152.982 Q 125.586 153.215 125.428 153.659 L 125.428 153.659 L 125.428 153.659 Q 125.27 154.103 125.27 154.52 L 125.27 154.52 L 125.27 154.52 Q 125.27 154.938 125.428 155.333 L 125.428 155.333 L 125.657 155.957 L 125.657 155.957 Q 125.744 156.177 125.744 156.445 L 125.744 156.445 L 125.744 156.445 Q 125.744 156.713 125.542 156.876 L 125.542 156.876 L 125.542 156.876 Q 125.34 157.038 125.059 157.038 L 125.059 157.038 L 125.059 157.038 Q 124.496 157.038 124.356 156.295 L 124.356 156.295 L 124.356 156.295 Q 124.215 155.553 124.048 155.342 L 124.048 155.342 L 124.048 155.342 Q 123.881 155.131 123.45 155.131 L 123.45 155.131 L 121.148 155.131 L 121.148 160.237 L 122.563 160.237 L 122.563 160.237 Q 123.178 160.237 123.428 160.453 L 123.428 160.453 L 123.428 160.453 Q 123.679 160.668 123.679 160.888 L 123.679 160.888 L 123.679 160.888 Q 123.679 161.652 122.747 161.652 L 122.747 161.652 L 122.536 161.652 L 122.536 161.652 Q 122.413 161.652 122.282 161.652 L 122.282 161.652 L 122.009 161.635 L 122.009 161.635 Q 121.877 161.635 121.745 161.63 L 121.745 161.63 L 121.745 161.63 Q 121.614 161.626 121.227 161.617 L 121.227 161.617 L 120.875 161.6 L 120.875 161.6 Q 120.699 161.6 120.55 161.6 Z  M 132.477 161.6 L 132.477 161.6 L 130.824 161.547 L 130.824 161.547 Q 130.455 161.547 130.271 161.556 L 130.271 161.556 L 129.884 161.573 L 129.884 161.573 Q 129.445 161.6 129.111 161.6 L 129.111 161.6 L 129.111 161.6 Q 128.258 161.6 128.258 160.949 L 128.258 160.949 L 128.258 160.949 Q 128.258 160.633 128.526 160.457 L 128.526 160.457 L 128.526 160.457 Q 128.794 160.281 129.242 160.281 L 129.242 160.281 L 129.928 160.281 L 129.928 154.551 L 129.928 154.551 Q 129.928 154.024 129.699 154.024 L 129.699 154.024 L 129.699 154.024 Q 129.594 154.024 129.37 154.085 L 129.37 154.085 L 129.37 154.085 Q 129.146 154.147 128.869 154.147 L 128.869 154.147 L 128.869 154.147 Q 128.592 154.147 128.372 153.962 L 128.372 153.962 L 128.372 153.962 Q 128.153 153.777 128.153 153.461 L 128.153 153.461 L 128.153 153.461 Q 128.153 152.793 129.102 152.696 L 129.102 152.696 L 129.102 152.696 Q 129.691 152.644 130.064 152.538 L 130.064 152.538 L 130.064 152.538 Q 130.438 152.433 130.789 152.433 L 130.789 152.433 L 130.789 152.433 Q 131.449 152.433 131.449 153.276 L 131.449 153.276 L 131.449 160.281 L 132.143 160.281 L 132.143 160.281 Q 133.25 160.281 133.25 160.976 L 133.25 160.976 L 133.25 160.976 Q 133.25 161.222 133.035 161.411 L 133.035 161.411 L 133.035 161.411 Q 132.82 161.6 132.477 161.6 Z  M 131.774 149.418 L 131.774 149.418 L 131.774 149.418 Q 131.774 150.271 131.053 150.525 L 131.053 150.525 L 131.053 150.525 Q 130.851 150.596 130.482 150.596 L 130.482 150.596 L 130.482 150.596 Q 130.113 150.596 129.805 150.306 L 129.805 150.306 L 129.805 150.306 Q 129.497 150.016 129.497 149.55 L 129.497 149.55 L 129.497 149.55 Q 129.497 149.084 129.818 148.776 L 129.818 148.776 L 129.818 148.776 Q 130.139 148.469 130.662 148.469 L 130.662 148.469 L 130.662 148.469 Q 131.185 148.469 131.479 148.746 L 131.479 148.746 L 131.479 148.746 Q 131.774 149.023 131.774 149.418 Z  M 136.449 161.547 L 134.78 161.6 L 134.78 161.6 Q 133.936 161.6 133.936 160.949 L 133.936 160.949 L 133.936 160.949 Q 133.936 160.633 134.199 160.457 L 134.199 160.457 L 134.199 160.457 Q 134.463 160.281 134.929 160.281 L 134.929 160.281 L 135.711 160.281 L 135.711 154.551 L 135.711 154.551 Q 135.711 154.024 135.483 154.024 L 135.483 154.024 L 135.483 154.024 Q 135.36 154.024 135.157 154.085 L 135.157 154.085 L 135.157 154.085 Q 134.955 154.147 134.665 154.147 L 134.665 154.147 L 134.665 154.147 Q 134.375 154.147 134.156 153.962 L 134.156 153.962 L 134.156 153.962 Q 133.936 153.777 133.936 153.461 L 133.936 153.461 L 133.936 153.461 Q 133.936 152.793 134.885 152.696 L 134.885 152.696 L 134.885 152.696 Q 135.386 152.652 135.821 152.543 L 135.821 152.543 L 135.821 152.543 Q 136.256 152.433 136.59 152.433 L 136.59 152.433 L 136.59 152.433 Q 137.232 152.433 137.232 153.276 L 137.232 153.276 L 137.232 154.428 L 137.232 154.428 Q 137.61 153.584 138.471 153.044 L 138.471 153.044 L 138.471 153.044 Q 139.332 152.503 140.29 152.503 L 140.29 152.503 L 140.29 152.503 Q 141.995 152.503 142.707 153.364 L 142.707 153.364 L 142.707 153.364 Q 143.419 154.226 143.419 155.685 L 143.419 155.685 L 143.419 160.281 L 144.008 160.281 L 144.008 160.281 Q 145.116 160.281 145.116 160.976 L 145.116 160.976 L 145.116 160.976 Q 145.116 161.222 144.905 161.411 L 144.905 161.411 L 144.905 161.411 Q 144.694 161.6 144.184 161.6 L 144.184 161.6 L 142.637 161.547 L 140.967 161.6 L 140.967 161.6 Q 140.123 161.6 140.123 160.949 L 140.123 160.949 L 140.123 160.949 Q 140.123 160.633 140.387 160.457 L 140.387 160.457 L 140.387 160.457 Q 140.651 160.281 141.116 160.281 L 141.116 160.281 L 141.881 160.281 L 141.881 156.256 L 141.881 156.256 Q 141.881 154.41 140.949 154.041 L 140.949 154.041 L 140.949 154.041 Q 140.624 153.909 140.167 153.909 L 140.167 153.909 L 140.167 153.909 Q 139.227 153.909 138.37 154.63 L 138.37 154.63 L 138.37 154.63 Q 137.513 155.351 137.232 156.458 L 137.232 156.458 L 137.232 160.281 L 137.821 160.281 L 137.821 160.281 Q 138.928 160.281 138.928 160.976 L 138.928 160.976 L 138.928 160.976 Q 138.928 161.222 138.717 161.411 L 138.717 161.411 L 138.717 161.411 Q 138.506 161.6 137.996 161.6 L 137.996 161.6 L 136.449 161.547 Z  M 147.884 156.291 L 147.884 156.291 L 148.491 156.309 L 148.491 156.309 Q 148.789 156.317 150.407 156.317 L 150.407 156.317 L 150.407 156.317 Q 152.024 156.317 152.525 156.054 L 152.525 156.054 L 152.525 156.054 Q 153.026 155.79 153.026 155.254 L 153.026 155.254 L 153.026 155.254 Q 153.026 154.718 152.419 154.305 L 152.419 154.305 L 152.419 154.305 Q 151.813 153.892 151.074 153.892 L 151.074 153.892 L 151.074 153.892 Q 149.782 153.892 148.948 154.551 L 148.948 154.551 L 148.948 154.551 Q 148.113 155.21 147.884 156.291 Z  M 153.782 158.831 L 153.782 158.831 L 153.782 158.831 Q 154.555 158.831 154.555 159.525 L 154.555 159.525 L 154.555 159.525 Q 154.555 159.842 154.313 160.233 L 154.313 160.233 L 154.313 160.233 Q 154.072 160.624 153.606 160.958 L 153.606 160.958 L 153.606 160.958 Q 152.516 161.732 150.754 161.732 L 150.754 161.732 L 150.754 161.732 Q 148.991 161.732 147.699 160.545 L 147.699 160.545 L 147.699 160.545 Q 147.058 159.956 146.671 159.095 L 146.671 159.095 L 146.671 159.095 Q 146.284 158.233 146.284 157.205 L 146.284 157.205 L 146.284 157.205 Q 146.284 155.201 147.603 153.852 L 147.603 153.852 L 147.603 153.852 Q 148.921 152.503 150.925 152.503 L 150.925 152.503 L 150.925 152.503 Q 152.595 152.503 153.575 153.316 L 153.575 153.316 L 153.575 153.316 Q 154.555 154.129 154.555 155.315 L 154.555 155.315 L 154.555 155.315 Q 154.555 156.502 153.597 157.086 L 153.597 157.086 L 153.597 157.086 Q 152.639 157.671 149.958 157.671 L 149.958 157.671 L 149.958 157.671 Q 149.246 157.671 147.849 157.618 L 147.849 157.618 L 147.849 157.618 Q 148.007 158.981 148.904 159.662 L 148.904 159.662 L 148.904 159.662 Q 149.8 160.343 150.776 160.343 L 150.776 160.343 L 150.776 160.343 Q 151.751 160.343 152.318 160.128 L 152.318 160.128 L 152.318 160.128 Q 152.885 159.912 153.136 159.372 L 153.136 159.372 L 153.136 159.372 Q 153.386 158.831 153.782 158.831 Z  M 160.461 161.732 L 160.461 161.732 L 160.461 161.732 Q 159.697 161.732 158.985 161.608 L 158.985 161.608 L 158.985 161.608 Q 158.624 162.241 158.229 162.241 L 158.229 162.241 L 158.229 162.241 Q 157.666 162.241 157.666 161.723 L 157.666 161.723 L 157.666 161.723 Q 157.666 161.266 157.433 160.87 L 157.433 160.87 L 157.433 160.87 Q 157.2 160.475 157.025 160.211 L 157.025 160.211 L 157.025 160.211 Q 156.436 159.332 156.436 158.981 L 156.436 158.981 L 156.436 158.981 Q 156.436 158.629 156.638 158.462 L 156.638 158.462 L 156.638 158.462 Q 156.84 158.295 157.086 158.295 L 157.086 158.295 L 157.086 158.295 Q 157.57 158.295 157.961 159.064 L 157.961 159.064 L 157.961 159.064 Q 158.352 159.833 158.888 160.088 L 158.888 160.088 L 158.888 160.088 Q 159.424 160.343 160.575 160.343 L 160.575 160.343 L 160.575 160.343 Q 162.272 160.343 162.782 159.376 L 162.782 159.376 L 162.782 159.376 Q 162.94 159.086 162.94 158.743 L 162.94 158.743 L 162.94 158.743 Q 162.94 158.058 162.342 157.772 L 162.342 157.772 L 162.342 157.772 Q 161.744 157.486 160.488 157.407 L 160.488 157.407 L 160.488 157.407 Q 159.231 157.328 158.633 157.135 L 158.633 157.135 L 158.633 157.135 Q 156.893 156.546 156.893 155.043 L 156.893 155.043 L 156.893 155.043 Q 156.893 154.12 157.864 153.378 L 157.864 153.378 L 157.864 153.378 Q 158.835 152.635 160.707 152.635 L 160.707 152.635 L 160.707 152.635 Q 161.103 152.635 161.498 152.705 L 161.498 152.705 L 161.498 152.705 Q 161.41 152.459 161.41 152.292 L 161.41 152.292 L 161.41 152.292 Q 161.41 152.125 161.56 151.98 L 161.56 151.98 L 161.56 151.98 Q 161.709 151.835 161.933 151.835 L 161.933 151.835 L 161.933 151.835 Q 162.157 151.835 162.281 151.949 L 162.281 151.949 L 162.281 151.949 Q 162.404 152.064 162.562 152.376 L 162.562 152.376 L 162.562 152.376 Q 162.72 152.688 163.168 153.263 L 163.168 153.263 L 163.168 153.263 Q 163.616 153.839 163.726 154.054 L 163.726 154.054 L 163.726 154.054 Q 163.836 154.27 163.836 154.516 L 163.836 154.516 L 163.836 154.516 Q 163.836 154.762 163.682 154.929 L 163.682 154.929 L 163.682 154.929 Q 163.529 155.096 163.274 155.096 L 163.274 155.096 L 163.274 155.096 Q 162.79 155.096 162.404 154.454 L 162.404 154.454 L 162.404 154.454 Q 162.21 154.129 161.841 154.006 L 161.841 154.006 L 161.841 154.006 Q 161.472 153.883 160.558 153.883 L 160.558 153.883 L 160.558 153.883 Q 159.644 153.883 159.095 154.212 L 159.095 154.212 L 159.095 154.212 Q 158.545 154.542 158.545 154.99 L 158.545 154.99 L 158.545 154.99 Q 158.545 155.439 158.826 155.614 L 158.826 155.614 L 158.826 155.614 Q 159.345 155.948 160.444 156.01 L 160.444 156.01 L 160.444 156.01 Q 162.553 156.133 163.507 156.731 L 163.507 156.731 L 163.507 156.731 Q 164.46 157.328 164.46 158.515 L 164.46 158.515 L 164.46 158.515 Q 164.46 160.035 163.3 160.883 L 163.3 160.883 L 163.3 160.883 Q 162.14 161.732 160.461 161.732 Z  M 168.67 150.2 L 168.591 152.696 L 170.815 152.635 L 170.815 152.635 Q 171.333 152.635 171.544 152.824 L 171.544 152.824 L 171.544 152.824 Q 171.755 153.013 171.755 153.285 L 171.755 153.285 L 171.755 153.285 Q 171.755 153.558 171.518 153.769 L 171.518 153.769 L 171.518 153.769 Q 171.281 153.98 170.802 153.98 L 170.802 153.98 L 170.802 153.98 Q 170.323 153.98 169.47 153.936 L 169.47 153.936 L 168.591 153.909 L 168.591 158.128 L 168.591 158.128 Q 168.591 159.438 168.78 159.798 L 168.78 159.798 L 168.78 159.798 Q 168.969 160.158 169.158 160.246 L 169.158 160.246 L 169.158 160.246 Q 169.347 160.334 169.734 160.334 L 169.734 160.334 L 169.734 160.334 Q 170.12 160.334 170.463 160.022 L 170.463 160.022 L 170.463 160.022 Q 170.806 159.71 170.969 159.609 L 170.969 159.609 L 170.969 159.609 Q 171.131 159.508 171.39 159.508 L 171.39 159.508 L 171.39 159.508 Q 171.65 159.508 171.83 159.71 L 171.83 159.71 L 171.83 159.71 Q 172.01 159.912 172.01 160.185 L 172.01 160.185 L 172.01 160.185 Q 172.01 160.756 171.294 161.244 L 171.294 161.244 L 171.294 161.244 Q 170.577 161.732 169.786 161.732 L 169.786 161.732 L 169.786 161.732 Q 168.407 161.732 167.734 161.015 L 167.734 161.015 L 167.734 161.015 Q 167.062 160.299 167.062 159.13 L 167.062 159.13 L 167.062 153.971 L 167.062 153.971 Q 166.754 153.997 166.389 153.997 L 166.389 153.997 L 166.389 153.997 Q 166.025 153.997 165.792 153.804 L 165.792 153.804 L 165.792 153.804 Q 165.559 153.61 165.559 153.298 L 165.559 153.298 L 165.559 153.298 Q 165.559 152.986 165.792 152.811 L 165.792 152.811 L 165.792 152.811 Q 166.025 152.635 166.363 152.635 L 166.363 152.635 L 166.363 152.635 Q 166.701 152.635 167.053 152.652 L 167.053 152.652 L 167.053 152.652 Q 167.044 152.362 167.035 151.967 L 167.035 151.967 L 167 151.193 L 167 151.193 Q 166.991 150.807 166.978 150.508 L 166.978 150.508 L 166.978 150.508 Q 166.965 150.209 166.965 150.112 L 166.965 150.112 L 166.965 150.112 Q 166.965 149.664 167.211 149.444 L 167.211 149.444 L 167.211 149.444 Q 167.457 149.225 167.826 149.225 L 167.826 149.225 L 167.826 149.225 Q 168.67 149.225 168.67 150.2 L 168.67 150.2 Z "
              fill-rule="evenodd" fill="rgb(0,0,0)"/>
    </g>
</svg>