<?xml version="1.0" standalone="no"?><!-- Generator: Gravit.io -->
<svg xmlns="http://www.w3.org/2000/svg" style="isolation:isolate" viewBox="17.786 25.199 361.91 120.381" width="361.91"
     height="120.381">
    <g id="Logo">
        <g id="Emo">
            <g id="Emo-Face">
                <path d=" M 77.976 144.903 C 45.13 144.903 18.462 118.236 18.462 85.389 C 18.462 52.542 45.13 25.874 77.976 25.874 C 110.823 25.874 137.491 52.542 137.491 85.389"
                      fill="none" vector-effect="non-scaling-stroke" stroke-width="1.352" stroke="rgb(0,0,0)"
                      stroke-linejoin="miter" stroke-linecap="square" stroke-miterlimit="3"/>
                <line x1="137.491" y1="85.389" x2="77.976" y2="85.389" vector-effect="non-scaling-stroke"
                      stroke-width="1.352" stroke="rgb(0,0,0)" stroke-linejoin="miter" stroke-linecap="square"
                      stroke-miterlimit="3"/>
            </g>
            <g id="Emo-Eyes">
                <path d=" M 122.955 72.229 C 122.955 70.819 124.1 69.674 125.51 69.674 C 126.919 69.674 128.064 70.819 128.064 72.229 C 128.064 73.639 126.919 74.783 125.51 74.783 C 124.1 74.783 122.955 73.639 122.955 72.229 Z "
                      fill="rgb(0,0,0)"/>
                <path d=" M 103.129 72.229 C 103.129 70.819 104.274 69.674 105.684 69.674 C 107.094 69.674 108.238 70.819 108.238 72.229 C 108.238 73.639 107.094 74.783 105.684 74.783 C 104.274 74.783 103.129 73.639 103.129 72.229 Z "
                      fill="rgb(0,0,0)"/>
            </g>
        </g>
        <path d=" M 130.767 110.733 L 133.686 110.733 L 133.788 115.202 L 133.788 115.202 Q 135.311 112.713 137.597 111.469 L 137.597 111.469 L 137.597 111.469 Q 139.882 110.225 142.675 110.225 L 142.675 110.225 L 142.675 110.225 Q 149.175 110.225 150.927 115.557 L 150.927 115.557 L 150.927 115.557 Q 152.399 112.993 154.862 111.609 L 154.862 111.609 L 154.862 111.609 Q 157.325 110.225 160.296 110.225 L 160.296 110.225 L 160.296 110.225 Q 169.132 110.225 169.31 119.873 L 169.31 119.873 L 169.31 138.205 L 166.263 138.205 L 166.263 120.102 L 166.263 120.102 Q 166.237 116.42 164.676 114.643 L 164.676 114.643 L 164.676 114.643 Q 163.114 112.866 159.585 112.866 L 159.585 112.866 L 159.585 112.866 Q 156.31 112.916 154.05 114.986 L 154.05 114.986 L 154.05 114.986 Q 151.79 117.055 151.536 120.026 L 151.536 120.026 L 151.536 138.205 L 148.489 138.205 L 148.489 119.873 L 148.489 119.873 Q 148.464 116.344 146.826 114.605 L 146.826 114.605 L 146.826 114.605 Q 145.188 112.866 141.786 112.866 L 141.786 112.866 L 141.786 112.866 Q 138.917 112.866 136.86 114.503 L 136.86 114.503 L 136.86 114.503 Q 134.804 116.141 133.813 119.366 L 133.813 119.366 L 133.813 138.205 L 130.767 138.205 L 130.767 110.733 Z  M 175.327 124.672 L 175.327 124.063 L 175.327 124.063 Q 175.327 120.102 176.863 116.928 L 176.863 116.928 L 176.863 116.928 Q 178.399 113.754 181.205 111.99 L 181.205 111.99 L 181.205 111.99 Q 184.011 110.225 187.565 110.225 L 187.565 110.225 L 187.565 110.225 Q 193.05 110.225 196.452 114.072 L 196.452 114.072 L 196.452 114.072 Q 199.854 117.918 199.854 124.266 L 199.854 124.266 L 199.854 124.901 L 199.854 124.901 Q 199.854 128.887 198.318 132.074 L 198.318 132.074 L 198.318 132.074 Q 196.782 135.26 193.989 136.987 L 193.989 136.987 L 193.989 136.987 Q 191.196 138.713 187.616 138.713 L 187.616 138.713 L 187.616 138.713 Q 182.157 138.713 178.742 134.867 L 178.742 134.867 L 178.742 134.867 Q 175.327 131.02 175.327 124.672 L 175.327 124.672 Z  M 178.374 124.342 L 178.374 124.901 L 178.374 124.901 Q 178.374 129.827 180.926 132.988 L 180.926 132.988 L 180.926 132.988 Q 183.477 136.149 187.616 136.149 L 187.616 136.149 L 187.616 136.149 Q 191.729 136.149 194.281 132.988 L 194.281 132.988 L 194.281 132.988 Q 196.833 129.827 196.833 124.647 L 196.833 124.647 L 196.833 124.063 L 196.833 124.063 Q 196.833 120.914 195.665 118.299 L 195.665 118.299 L 195.665 118.299 Q 194.497 115.684 192.39 114.249 L 192.39 114.249 L 192.39 114.249 Q 190.282 112.815 187.565 112.815 L 187.565 112.815 L 187.565 112.815 Q 183.503 112.815 180.938 116.001 L 180.938 116.001 L 180.938 116.001 Q 178.374 119.188 178.374 124.342 L 178.374 124.342 Z  M 207.802 103.7 L 210.849 103.7 L 210.849 110.733 L 216.536 110.733 L 216.536 113.221 L 210.849 113.221 L 210.849 131.528 L 210.849 131.528 Q 210.849 133.813 211.674 134.93 L 211.674 134.93 L 211.674 134.93 Q 212.499 136.047 214.429 136.047 L 214.429 136.047 L 214.429 136.047 Q 215.19 136.047 216.892 135.793 L 216.892 135.793 L 217.018 138.282 L 217.018 138.282 Q 215.825 138.713 213.768 138.713 L 213.768 138.713 L 213.768 138.713 Q 210.645 138.713 209.224 136.898 L 209.224 136.898 L 209.224 136.898 Q 207.802 135.082 207.802 131.553 L 207.802 131.553 L 207.802 113.221 L 202.749 113.221 L 202.749 110.733 L 207.802 110.733 L 207.802 103.7 Z  M 226.235 110.733 L 226.235 138.205 L 223.188 138.205 L 223.188 110.733 L 226.235 110.733 Z  M 222.655 102.786 L 222.655 102.786 L 222.655 102.786 Q 222.655 101.922 223.214 101.326 L 223.214 101.326 L 223.214 101.326 Q 223.772 100.729 224.737 100.729 L 224.737 100.729 L 224.737 100.729 Q 225.702 100.729 226.273 101.326 L 226.273 101.326 L 226.273 101.326 Q 226.845 101.922 226.845 102.786 L 226.845 102.786 L 226.845 102.786 Q 226.845 103.649 226.273 104.233 L 226.273 104.233 L 226.273 104.233 Q 225.702 104.817 224.737 104.817 L 224.737 104.817 L 224.737 104.817 Q 223.772 104.817 223.214 104.233 L 223.214 104.233 L 223.214 104.233 Q 222.655 103.649 222.655 102.786 Z  M 232.811 124.672 L 232.811 124.063 L 232.811 124.063 Q 232.811 120.102 234.348 116.928 L 234.348 116.928 L 234.348 116.928 Q 235.884 113.754 238.689 111.99 L 238.689 111.99 L 238.689 111.99 Q 241.495 110.225 245.05 110.225 L 245.05 110.225 L 245.05 110.225 Q 250.534 110.225 253.936 114.072 L 253.936 114.072 L 253.936 114.072 Q 257.339 117.918 257.339 124.266 L 257.339 124.266 L 257.339 124.901 L 257.339 124.901 Q 257.339 128.887 255.803 132.074 L 255.803 132.074 L 255.803 132.074 Q 254.267 135.26 251.474 136.987 L 251.474 136.987 L 251.474 136.987 Q 248.681 138.713 245.101 138.713 L 245.101 138.713 L 245.101 138.713 Q 239.642 138.713 236.226 134.867 L 236.226 134.867 L 236.226 134.867 Q 232.811 131.02 232.811 124.672 L 232.811 124.672 Z  M 235.858 124.342 L 235.858 124.901 L 235.858 124.901 Q 235.858 129.827 238.41 132.988 L 238.41 132.988 L 238.41 132.988 Q 240.962 136.149 245.101 136.149 L 245.101 136.149 L 245.101 136.149 Q 249.214 136.149 251.766 132.988 L 251.766 132.988 L 251.766 132.988 Q 254.317 129.827 254.317 124.647 L 254.317 124.647 L 254.317 124.063 L 254.317 124.063 Q 254.317 120.914 253.149 118.299 L 253.149 118.299 L 253.149 118.299 Q 251.981 115.684 249.874 114.249 L 249.874 114.249 L 249.874 114.249 Q 247.767 112.815 245.05 112.815 L 245.05 112.815 L 245.05 112.815 Q 240.987 112.815 238.423 116.001 L 238.423 116.001 L 238.423 116.001 Q 235.858 119.188 235.858 124.342 L 235.858 124.342 Z  M 263.61 110.733 L 266.505 110.733 L 266.606 115.43 L 266.606 115.43 Q 268.155 112.891 270.466 111.558 L 270.466 111.558 L 270.466 111.558 Q 272.776 110.225 275.569 110.225 L 275.569 110.225 L 275.569 110.225 Q 279.987 110.225 282.145 112.713 L 282.145 112.713 L 282.145 112.713 Q 284.304 115.202 284.329 120.178 L 284.329 120.178 L 284.329 138.205 L 281.308 138.205 L 281.308 120.153 L 281.308 120.153 Q 281.282 116.471 279.746 114.668 L 279.746 114.668 L 279.746 114.668 Q 278.21 112.866 274.833 112.866 L 274.833 112.866 L 274.833 112.866 Q 272.015 112.866 269.844 114.63 L 269.844 114.63 L 269.844 114.63 Q 267.673 116.395 266.632 119.391 L 266.632 119.391 L 266.632 138.205 L 263.61 138.205 L 263.61 110.733 Z  M 295.577 99.205 L 295.577 138.205 L 292.53 138.205 L 292.53 99.205 L 295.577 99.205 Z  M 314.468 138.713 L 314.468 138.713 L 314.468 138.713 Q 310.964 138.713 308.133 136.987 L 308.133 136.987 L 308.133 136.987 Q 305.302 135.26 303.727 132.175 L 303.727 132.175 L 303.727 132.175 Q 302.153 129.09 302.153 125.256 L 302.153 125.256 L 302.153 124.164 L 302.153 124.164 Q 302.153 120.203 303.689 117.03 L 303.689 117.03 L 303.689 117.03 Q 305.226 113.856 307.968 112.04 L 307.968 112.04 L 307.968 112.04 Q 310.71 110.225 313.909 110.225 L 313.909 110.225 L 313.909 110.225 Q 318.911 110.225 321.844 113.64 L 321.844 113.64 L 321.844 113.64 Q 324.776 117.055 324.776 122.971 L 324.776 122.971 L 324.776 124.672 L 305.175 124.672 L 305.175 125.256 L 305.175 125.256 Q 305.175 129.928 307.853 133.038 L 307.853 133.038 L 307.853 133.038 Q 310.532 136.149 314.595 136.149 L 314.595 136.149 L 314.595 136.149 Q 317.032 136.149 318.898 135.26 L 318.898 135.26 L 318.898 135.26 Q 320.765 134.371 322.288 132.416 L 322.288 132.416 L 324.192 133.864 L 324.192 133.864 Q 320.841 138.713 314.468 138.713 Z  M 313.909 112.815 L 313.909 112.815 L 313.909 112.815 Q 310.481 112.815 308.133 115.328 L 308.133 115.328 L 308.133 115.328 Q 305.784 117.842 305.276 122.082 L 305.276 122.082 L 321.755 122.082 L 321.755 121.752 L 321.755 121.752 Q 321.628 117.791 319.495 115.303 L 319.495 115.303 L 319.495 115.303 Q 317.362 112.815 313.909 112.815 Z  M 347.145 131.223 L 347.145 131.223 L 347.145 131.223 Q 347.145 128.963 345.33 127.592 L 345.33 127.592 L 345.33 127.592 Q 343.515 126.221 339.858 125.447 L 339.858 125.447 L 339.858 125.447 Q 336.202 124.672 334.184 123.669 L 334.184 123.669 L 334.184 123.669 Q 332.165 122.666 331.187 121.219 L 331.187 121.219 L 331.187 121.219 Q 330.21 119.772 330.21 117.715 L 330.21 117.715 L 330.21 117.715 Q 330.21 114.465 332.927 112.345 L 332.927 112.345 L 332.927 112.345 Q 335.643 110.225 339.884 110.225 L 339.884 110.225 L 339.884 110.225 Q 344.479 110.225 347.26 112.497 L 347.26 112.497 L 347.26 112.497 Q 350.04 114.77 350.04 118.426 L 350.04 118.426 L 346.993 118.426 L 346.993 118.426 Q 346.993 116.014 344.975 114.414 L 344.975 114.414 L 344.975 114.414 Q 342.956 112.815 339.884 112.815 L 339.884 112.815 L 339.884 112.815 Q 336.888 112.815 335.072 114.148 L 335.072 114.148 L 335.072 114.148 Q 333.257 115.481 333.257 117.614 L 333.257 117.614 L 333.257 117.614 Q 333.257 119.67 334.768 120.8 L 334.768 120.8 L 334.768 120.8 Q 336.278 121.93 340.277 122.869 L 340.277 122.869 L 340.277 122.869 Q 344.276 123.809 346.269 124.875 L 346.269 124.875 L 346.269 124.875 Q 348.263 125.942 349.227 127.44 L 349.227 127.44 L 349.227 127.44 Q 350.192 128.938 350.192 131.071 L 350.192 131.071 L 350.192 131.071 Q 350.192 134.549 347.387 136.631 L 347.387 136.631 L 347.387 136.631 Q 344.581 138.713 340.061 138.713 L 340.061 138.713 L 340.061 138.713 Q 335.263 138.713 332.279 136.39 L 332.279 136.39 L 332.279 136.39 Q 329.296 134.067 329.296 130.512 L 329.296 130.512 L 332.343 130.512 L 332.343 130.512 Q 332.52 133.178 334.59 134.663 L 334.59 134.663 L 334.59 134.663 Q 336.659 136.149 340.061 136.149 L 340.061 136.149 L 340.061 136.149 Q 343.235 136.149 345.19 134.752 L 345.19 134.752 L 345.19 134.752 Q 347.145 133.356 347.145 131.223 Z  M 373.476 131.223 L 373.476 131.223 L 373.476 131.223 Q 373.476 128.963 371.66 127.592 L 371.66 127.592 L 371.66 127.592 Q 369.845 126.221 366.188 125.447 L 366.188 125.447 L 366.188 125.447 Q 362.532 124.672 360.514 123.669 L 360.514 123.669 L 360.514 123.669 Q 358.495 122.666 357.518 121.219 L 357.518 121.219 L 357.518 121.219 Q 356.54 119.772 356.54 117.715 L 356.54 117.715 L 356.54 117.715 Q 356.54 114.465 359.257 112.345 L 359.257 112.345 L 359.257 112.345 Q 361.974 110.225 366.214 110.225 L 366.214 110.225 L 366.214 110.225 Q 370.81 110.225 373.59 112.497 L 373.59 112.497 L 373.59 112.497 Q 376.37 114.77 376.37 118.426 L 376.37 118.426 L 373.323 118.426 L 373.323 118.426 Q 373.323 116.014 371.305 114.414 L 371.305 114.414 L 371.305 114.414 Q 369.286 112.815 366.214 112.815 L 366.214 112.815 L 366.214 112.815 Q 363.218 112.815 361.402 114.148 L 361.402 114.148 L 361.402 114.148 Q 359.587 115.481 359.587 117.614 L 359.587 117.614 L 359.587 117.614 Q 359.587 119.67 361.098 120.8 L 361.098 120.8 L 361.098 120.8 Q 362.608 121.93 366.607 122.869 L 366.607 122.869 L 366.607 122.869 Q 370.606 123.809 372.6 124.875 L 372.6 124.875 L 372.6 124.875 Q 374.593 125.942 375.558 127.44 L 375.558 127.44 L 375.558 127.44 Q 376.522 128.938 376.522 131.071 L 376.522 131.071 L 376.522 131.071 Q 376.522 134.549 373.717 136.631 L 373.717 136.631 L 373.717 136.631 Q 370.911 138.713 366.392 138.713 L 366.392 138.713 L 366.392 138.713 Q 361.593 138.713 358.609 136.39 L 358.609 136.39 L 358.609 136.39 Q 355.626 134.067 355.626 130.512 L 355.626 130.512 L 358.673 130.512 L 358.673 130.512 Q 358.851 133.178 360.92 134.663 L 360.92 134.663 L 360.92 134.663 Q 362.989 136.149 366.392 136.149 L 366.392 136.149 L 366.392 136.149 Q 369.565 136.149 371.52 134.752 L 371.52 134.752 L 371.52 134.752 Q 373.476 133.356 373.476 131.223 Z "
              fill-rule="evenodd" fill="rgb(0,0,0)"/>
    </g>
</svg>